<svg xmlns="http://www.w3.org/2000/svg" xmlns:xlink="http://www.w3.org/1999/xlink" fill="none" version="1.1" width="16" height="16" viewBox="0 0 16 16"><defs><clipPath id="master_svg0_7_18360"><rect x="0" y="0" width="16" height="16" rx="0"/></clipPath></defs><g clip-path="url(#master_svg0_7_18360)"><g><rect x="0" y="0" width="16" height="16" rx="0" fill="#FFFFFF" fill-opacity="0.009999999776482582"/></g><g><path d="M2.93256609375,2.932321953125Q0.83349609375,5.031381953125,0.83349609375,7.999921953125Q0.83349609375,10.968451953125,2.93256609375,13.067551953125Q5.03162609375,15.166551953125,8.00016609375,15.166551953125Q10.96869609375,15.166551953125,13.06779609375,13.067551953125Q15.16679609375,10.968451953125,15.16679609375,7.999921953125Q15.16679609375,5.031381953125,13.06779609375,2.932321953125Q10.96869609375,0.833251953125,8.00016609375,0.833251953125Q5.03163609375,0.833251953125,2.93256609375,2.932321953125ZM3.63966609375,12.360451953125Q1.83349609375,10.554231953125,1.83349609375,7.999921953125Q1.83349509375,5.445601953125,3.63966609375,3.639421953125Q5.44584609375,1.833251953125,8.00016609375,1.833251953125Q10.55447609375,1.833251953125,12.36069609375,3.639421953125Q14.16679609375,5.445601953125,14.16679609375,7.999921953125Q14.16679609375,10.554241953125,12.36069609375,12.360451953125Q10.55447609375,14.166551953125,8.00016609375,14.166551953125Q5.44584609375,14.166551953125,3.63966609375,12.360451953125Z" fill-rule="evenodd" fill="#666666" fill-opacity="1"/></g><g><path d="M7.5,5.333251953125L7.5,10.666581953125Q7.5,10.715831953125,7.509607,10.764131953125Q7.519215,10.812431953125,7.53806,10.857921953125Q7.556906,10.903421953125001,7.584265,10.944371953125Q7.611625,10.985311953124999,7.646447,11.020141953125Q7.681269,11.054961953125,7.722215,11.082321953125Q7.763161,11.109681953125001,7.808658,11.128521953125Q7.854155,11.147371953124999,7.9024549,11.156981953125001Q7.9507543,11.166581953125,8,11.166581953125Q8.0492457,11.166581953125,8.0975451,11.156981953125001Q8.145845,11.147371953124999,8.191342,11.128521953125Q8.236839,11.109681953125001,8.277785,11.082321953125Q8.318731,11.054961953125,8.353553,11.020141953125Q8.388375,10.985311953124999,8.415735,10.944371953125Q8.443094,10.903421953125001,8.46194,10.857921953125Q8.480785000000001,10.812431953125,8.490393,10.764131953125Q8.5,10.715831953125,8.5,10.666581953125L8.5,5.333251953125Q8.5,5.284006253125,8.490393,5.235706853125Q8.480785000000001,5.187406953125,8.46194,5.141909953125Q8.443094,5.096412953125,8.415735,5.055466953125Q8.388375,5.014520953125,8.353553,4.979698953125Q8.318731,4.944876953125,8.277785,4.917516953125Q8.236839,4.890157953125,8.191342,4.871311953125Q8.145845,4.852466953125,8.0975451,4.842858953125Q8.0492457,4.833251953125,8,4.833251953125Q7.9507543,4.833251953125,7.9024549,4.842858953125Q7.854155,4.852466953125,7.808658,4.871311953125Q7.763161,4.890157953125,7.722215,4.917516953125Q7.681269,4.944876953125,7.646447,4.979698953125Q7.611625,5.014520953125,7.584265,5.055466953125Q7.556906,5.096412953125,7.53806,5.141909953125Q7.519215,5.187406953125,7.509607,5.235706853125Q7.5,5.284006253125,7.5,5.333251953125Z" fill-rule="evenodd" fill="#666666" fill-opacity="1"/></g><g><path d="M5.33349609375,8.5L10.66682609375,8.5Q10.71607609375,8.5,10.76437609375,8.490393Q10.81267609375,8.480785000000001,10.85816609375,8.46194Q10.903666093750001,8.443094,10.94461609375,8.415735Q10.985556093749999,8.388375,11.02038609375,8.353553Q11.05520609375,8.318731,11.08256609375,8.277785Q11.109926093750001,8.236839,11.12876609375,8.191342Q11.147616093749999,8.145845,11.157226093750001,8.0975451Q11.16682609375,8.0492457,11.16682609375,8Q11.16682609375,7.9507543,11.157226093750001,7.9024549Q11.147616093749999,7.854155,11.12876609375,7.808658Q11.109926093750001,7.763161,11.08256609375,7.722215Q11.05520609375,7.681269,11.02038609375,7.646447Q10.985556093749999,7.611625,10.94461609375,7.584265Q10.903666093750001,7.556906,10.85816609375,7.53806Q10.81267609375,7.519215,10.76437609375,7.509607Q10.71607609375,7.5,10.66682609375,7.5L5.33349609375,7.5Q5.28425039375,7.5,5.23595099375,7.509607Q5.18765109375,7.519215,5.14215409375,7.53806Q5.09665709375,7.556906,5.05571109375,7.584265Q5.01476509375,7.611625,4.97994309375,7.646447Q4.94512109375,7.681269,4.91776109375,7.722215Q4.89040209375,7.763161,4.87155609375,7.808658Q4.85271109375,7.854155,4.84310309375,7.9024549Q4.83349609375,7.9507543,4.83349609375,8Q4.83349609375,8.0492457,4.84310309375,8.0975451Q4.85271109375,8.145845,4.87155609375,8.191342Q4.89040209375,8.236839,4.91776109375,8.277785Q4.94512109375,8.318731,4.97994309375,8.353553Q5.01476509375,8.388375,5.05571109375,8.415735Q5.09665709375,8.443094,5.14215409375,8.46194Q5.18765109375,8.480785000000001,5.23595099375,8.490393Q5.28425039375,8.5,5.33349609375,8.5Z" fill-rule="evenodd" fill="#666666" fill-opacity="1"/></g></g></svg>