<svg xmlns="http://www.w3.org/2000/svg" xmlns:xlink="http://www.w3.org/1999/xlink" fill="none" version="1.1" width="16" height="16" viewBox="0 0 16 16"><defs><clipPath id="master_svg0_544_8083"><rect x="0" y="0" width="16" height="16" rx="0"/></clipPath></defs><g clip-path="url(#master_svg0_544_8083)"><g><rect x="0" y="0" width="16" height="16" rx="0" fill="#FFFFFF" fill-opacity="0.009999999776482582"/></g><g><path d="M2.5,14.666551953125L2.5,3.333251953125Q2.5,3.284006253125,2.509607,3.235706853125Q2.519215,3.187406953125,2.5380599999999998,3.141909953125Q2.556906,3.096412953125,2.584265,3.055466953125Q2.611625,3.014520953125,2.646447,2.979698953125Q2.681269,2.944876953125,2.722215,2.917516953125Q2.763161,2.890157953125,2.808658,2.8713119531249998Q2.854155,2.852466953125,2.9024549,2.842858953125Q2.9507543,2.833251953125,3,2.833251953125L13,2.833251953125Q13.0492,2.833251953125,13.0975,2.842858953125Q13.1458,2.852466953125,13.1913,2.8713119531249998Q13.2368,2.890157953125,13.2778,2.917516953125Q13.3187,2.944876953125,13.3536,2.979698953125Q13.3884,3.014520953125,13.4157,3.055466953125Q13.4431,3.096412953125,13.4619,3.141909953125Q13.4808,3.187406953125,13.4904,3.235706853125Q13.5,3.284006253125,13.5,3.333251953125L13.5,14.666551953125Q13.5,14.715851953125,13.4904,14.764151953125Q13.4808,14.812451953125,13.4619,14.857951953125Q13.4431,14.903451953125,13.4157,14.944351953125Q13.3884,14.985351953125,13.3536,15.020151953125Q13.3187,15.054951953125,13.2778,15.082351953125Q13.2368,15.109651953125,13.1913,15.128551953125Q13.1458,15.147351953125,13.0975,15.156951953125Q13.0492,15.166551953125,13,15.166551953125L3,15.166551953125Q2.9507543,15.166551953125,2.9024549,15.156951953125Q2.854155,15.147351953125,2.808658,15.128551953125Q2.763161,15.109651953125,2.722215,15.082351953125Q2.681269,15.054951953125,2.646447,15.020151953125Q2.611625,14.985351953125,2.584265,14.944351953125Q2.556906,14.903451953125,2.5380599999999998,14.857951953125Q2.519215,14.812451953125,2.509607,14.764151953125Q2.5,14.715851953125,2.5,14.666551953125ZM12.5,3.833251953125L3.5,3.833251953125L3.5,14.166551953125L12.5,14.166551953125L12.5,3.833251953125Z" fill-rule="evenodd" fill="#666666" fill-opacity="1"/></g><g><path d="M6.16650390625,6.666748046875L6.16650390625,11.000078046875Q6.16650390625,11.049328046875,6.17611090625,11.097628046875Q6.18571890625,11.145928046875,6.20456390625,11.191418046875Q6.22340990625,11.236918046875001,6.25076890625,11.277868046875Q6.27812890625,11.318808046874999,6.31295090625,11.353638046875Q6.34777290625,11.388458046875,6.38871890625,11.415818046875Q6.42966490625,11.443178046875001,6.47516190625,11.462018046875Q6.52065890625,11.480868046874999,6.56895880625,11.490478046875001Q6.61725820625,11.500078046875,6.66650390625,11.500078046875Q6.71574960625,11.500078046875,6.76404900625,11.490478046875001Q6.81234890625,11.480868046874999,6.85784590625,11.462018046875Q6.90334290625,11.443178046875001,6.94428890625,11.415818046875Q6.98523490625,11.388458046875,7.02005690625,11.353638046875Q7.05487890625,11.318808046874999,7.08223890625,11.277868046875Q7.10959790625,11.236918046875001,7.12844390625,11.191418046875Q7.14728890625,11.145928046875,7.15689690625,11.097628046875Q7.16650390625,11.049328046875,7.16650390625,11.000078046875L7.16650390625,6.666748046875Q7.16650390625,6.617502346875,7.15689690625,6.569202946875Q7.14728890625,6.520903046875,7.12844390625,6.475406046875Q7.10959790625,6.429909046875,7.08223890625,6.388963046875Q7.05487890625,6.348017046875,7.02005690625,6.313195046875Q6.98523490625,6.278373046875,6.94428890625,6.251013046875Q6.90334290625,6.223654046875,6.85784590625,6.204808046875Q6.81234890625,6.185963046875,6.76404900625,6.176355046875Q6.71574960625,6.166748046875,6.66650390625,6.166748046875Q6.61725820625,6.166748046875,6.56895880625,6.176355046875Q6.52065890625,6.185963046875,6.47516190625,6.204808046875Q6.42966490625,6.223654046875,6.38871890625,6.251013046875Q6.34777290625,6.278373046875,6.31295090625,6.313195046875Q6.27812890625,6.348017046875,6.25076890625,6.388963046875Q6.22340990625,6.429909046875,6.20456390625,6.475406046875Q6.18571890625,6.520903046875,6.17611090625,6.569202946875Q6.16650390625,6.617502346875,6.16650390625,6.666748046875Z" fill-rule="evenodd" fill="#666666" fill-opacity="1"/></g><g><path d="M8.83349609375,6.666748046875L8.83349609375,11.000078046875Q8.83349609375,11.049328046875,8.84310309375,11.097628046875Q8.852711093749999,11.145928046875,8.87155609375,11.191418046875Q8.89040209375,11.236918046875001,8.91776109375,11.277868046875Q8.94512109375,11.318808046874999,8.97994309375,11.353638046875Q9.01476509375,11.388458046875,9.05571109375,11.415818046875Q9.09665709375,11.443178046875001,9.14215409375,11.462018046875Q9.18765109375,11.480868046874999,9.23595099375,11.490478046875001Q9.28425039375,11.500078046875,9.33349609375,11.500078046875Q9.38274179375,11.500078046875,9.43104119375,11.490478046875001Q9.47934109375,11.480868046874999,9.52483809375,11.462018046875Q9.57033509375,11.443178046875001,9.61128109375,11.415818046875Q9.65222709375,11.388458046875,9.68704909375,11.353638046875Q9.72187109375,11.318808046874999,9.74923109375,11.277868046875Q9.77659009375,11.236918046875001,9.79543609375,11.191418046875Q9.814281093750001,11.145928046875,9.82388909375,11.097628046875Q9.83349609375,11.049328046875,9.83349609375,11.000078046875L9.83349609375,6.666748046875Q9.83349609375,6.617502346875,9.82388909375,6.569202946875Q9.814281093750001,6.520903046875,9.79543609375,6.475406046875Q9.77659009375,6.429909046875,9.74923109375,6.388963046875Q9.72187109375,6.348017046875,9.68704909375,6.313195046875Q9.65222709375,6.278373046875,9.61128109375,6.251013046875Q9.57033509375,6.223654046875,9.52483809375,6.204808046875Q9.47934109375,6.185963046875,9.43104119375,6.176355046875Q9.38274179375,6.166748046875,9.33349609375,6.166748046875Q9.28425039375,6.166748046875,9.23595099375,6.176355046875Q9.18765109375,6.185963046875,9.14215409375,6.204808046875Q9.09665709375,6.223654046875,9.05571109375,6.251013046875Q9.01476509375,6.278373046875,8.97994309375,6.313195046875Q8.94512109375,6.348017046875,8.91776109375,6.388963046875Q8.89040209375,6.429909046875,8.87155609375,6.475406046875Q8.852711093749999,6.520903046875,8.84310309375,6.569202946875Q8.83349609375,6.617502346875,8.83349609375,6.666748046875Z" fill-rule="evenodd" fill="#666666" fill-opacity="1"/></g><g><path d="M1.33349609375,3.833251953125L14.66679609375,3.833251953125Q14.71609609375,3.833251953125,14.76439609375,3.823644953125Q14.81269609375,3.814036953125,14.85819609375,3.7951919531250002Q14.90369609375,3.776345953125,14.94459609375,3.748986953125Q14.98559609375,3.721626953125,15.02039609375,3.686804953125Q15.05519609375,3.651982953125,15.08259609375,3.611036953125Q15.10989609375,3.570090953125,15.12879609375,3.524593953125Q15.14759609375,3.479096953125,15.15719609375,3.430797053125Q15.16679609375,3.382497653125,15.16679609375,3.333251953125Q15.16679609375,3.284006253125,15.15719609375,3.235706853125Q15.14759609375,3.187406953125,15.12879609375,3.141909953125Q15.10989609375,3.096412953125,15.08259609375,3.055466953125Q15.05519609375,3.014520953125,15.02039609375,2.979698953125Q14.98559609375,2.944876953125,14.94459609375,2.917516953125Q14.90369609375,2.890157953125,14.85819609375,2.8713119531249998Q14.81269609375,2.852466953125,14.76439609375,2.842858953125Q14.71609609375,2.833251953125,14.66679609375,2.833251953125L1.33349609375,2.833251953125Q1.28425039375,2.833251953125,1.23595099375,2.842858953125Q1.18765109375,2.852466953125,1.1421540937499999,2.8713119531249998Q1.09665709375,2.890157953125,1.05571109375,2.917516953125Q1.01476509375,2.944876953125,0.97994309375,2.979698953125Q0.94512109375,3.014520953125,0.91776109375,3.055466953125Q0.89040209375,3.096412953125,0.87155609375,3.141909953125Q0.85271109375,3.187406953125,0.8431030937499999,3.235706853125Q0.83349609375,3.284006253125,0.83349609375,3.333251953125Q0.83349609375,3.382497653125,0.8431030937499999,3.430797053125Q0.85271109375,3.479096953125,0.87155609375,3.524593953125Q0.89040209375,3.570090953125,0.91776109375,3.611036953125Q0.94512109375,3.651982953125,0.97994309375,3.686804953125Q1.01476509375,3.721626953125,1.05571109375,3.748986953125Q1.09665709375,3.776345953125,1.1421540937499999,3.7951919531250002Q1.18765109375,3.814036953125,1.23595099375,3.823644953125Q1.28425039375,3.833251953125,1.33349609375,3.833251953125Z" fill-rule="evenodd" fill="#666666" fill-opacity="1"/></g><g><path d="M5.33349609375,3.833251953125L10.66682609375,3.833251953125Q10.79261609375,3.833251953125,10.903436093749999,3.773731953125Q10.94681609375,3.750421953125,10.98481609375,3.719101953125Q11.02281609375,3.687781953125,11.05398609375,3.649651953125Q11.08514609375,3.611521953125,11.10827609375,3.568041953125Q11.13139609375,3.524561953125,11.145596093750001,3.477411953125Q11.15979609375,3.430261953125,11.164516093749999,3.381241953125Q11.16924609375,3.332221953125,11.16431609375,3.283221953125Q11.15939609375,3.234221953125,11.144996093749999,3.187131953125Q11.13060609375,3.140031953125,11.107306093750001,3.096651953125L10.03300609375,1.096649953125Q10.00093609375,1.036940953125,9.95412609375,0.9879249531250001Q9.907316093750001,0.938908953125,9.849136093750001,0.904123953125Q9.79096609375,0.869338953125,9.725636093750001,0.851295953125Q9.66030609375,0.833251953125,9.59252609375,0.833251953125L6.42982609375,0.833251953125Q6.36259609375,0.833251953125,6.29774509375,0.8510139531250001Q6.23289809375,0.868774953125,6.17504609375,0.9030359531250001Q6.11719409375,0.9372979531250001,6.0704480937500005,0.985623953125Q6.02370209375,1.033950953125,5.9913820937499995,1.092909953125L4.89504909375,3.0929119531250002Q4.83349609375,3.205201953125,4.83349609375,3.333251953125Q4.83349609375,3.382501953125,4.84310309375,3.430791953125Q4.85271109375,3.479091953125,4.87155609375,3.524591953125Q4.89040209375,3.570091953125,4.91776109375,3.611031953125Q4.94512109375,3.651981953125,4.97994309375,3.686801953125Q5.01476509375,3.721631953125,5.05571109375,3.748981953125Q5.09665709375,3.776341953125,5.14215409375,3.795191953125Q5.18765109375,3.814031953125,5.23595099375,3.823641953125Q5.28425039375,3.833251953125,5.33349609375,3.833251953125ZM9.83068609375,2.833251953125L6.17777409375,2.833251953125L6.72593609375,1.833251953125L9.29353609375,1.833251953125L9.83068609375,2.833251953125Z" fill-rule="evenodd" fill="#666666" fill-opacity="1"/></g></g></svg>