<svg xmlns="http://www.w3.org/2000/svg" xmlns:xlink="http://www.w3.org/1999/xlink" version="1.1" width="16" height="16"
  viewBox="0 0 16 16">
  <defs>
    <clipPath id="master_svg0_544_05023">
      <rect x="0" y="0" width="16" height="16" rx="0" />
    </clipPath>
  </defs>
  <g clip-path="url(#master_svg0_544_05023)">
    <g>
      <rect x="0" y="0" width="16" height="16" rx="0" fill-opacity="0.009999999776482582" />
    </g>
    <g>
      <path
        d="M14.6859921875,4.02149801171875L14.6863921875,4.02108701171875L14.6871921875,4.02024001171875Q14.7574921875,3.94991401171875,14.7955921875,3.85802901171875Q14.8336921875,3.76614311171875,14.8336921875,3.6666870117187678Q14.8336921875,3.56754291171875,14.7957921875,3.47590001171875Q14.7579921875,3.38425701171875,14.6880921875,3.31398401171875L14.6871921875,3.31313401171875Q14.6170921875,3.24302801171875,14.5255921875,3.20497701171875Q14.4339921875,3.16692601171875,14.3348921875,3.16668801171875L14.3347921875,3.16668801171875L14.3337921875,3.16668701171875L14.3336921875,3.16668701171875Q14.2344921875,3.16668701171875,14.1428921875,3.20451801171875Q14.0511921875,3.24234901171875,13.9809921875,3.31228701171875L13.9804921875,3.31269801171875L5.6253221875,11.62793701171875L2.0196971875,8.039557011718749Q1.9494231874999999,7.96961701171875,1.8577801875,7.93178701171875Q1.7661368875,7.89395701171875,1.6669921874999998,7.89395701171875L1.6657934675,7.89395701171875Q1.5663371875,7.89419701171875,1.4745431875,7.93247701171875Q1.3827491875,7.97075701171875,1.3125921875,8.041247011718749Q1.2426541875,8.11152701171875,1.2048231875,8.203167011718751Q1.1669921875,8.29480701171875,1.1669921875,8.39395701171875L1.1669931875,8.39515701171875Q1.1672321875,8.494607011718749,1.2055121875,8.58640701171875Q1.2437931875000001,8.678197011718751,1.3142871875,8.748357011718749L5.2726221875,12.68775701171875Q5.3074221875,12.72238701171875,5.3482921875,12.74958701171875Q5.3891621875,12.77678701171875,5.4345421875,12.79552701171875Q5.4799221875,12.81425701171875,5.528072187499999,12.82380701171875Q5.5762321875000005,12.83335701171875,5.6253221875,12.83335701171875Q5.6744221875,12.83335701171875,5.7225721875,12.82380701171875Q5.7707321875,12.81425701171875,5.8161121875,12.79552701171875Q5.8614921875,12.77678701171875,5.9023621875,12.74958701171875Q5.9432321875,12.72238701171875,5.9780321875,12.68775701171875L14.6859921875,4.02149801171875Z"
        fill-rule="evenodd" fill-opacity="1" />
    </g>
  </g>
</svg>