<svg xmlns="http://www.w3.org/2000/svg" xmlns:xlink="http://www.w3.org/1999/xlink" " version=" 1.1" width="16"
  height="16" viewBox="0 0 16 16">
  <defs>
    <clipPath id="master_svg0_544_05019">
      <rect x="0" y="0" width="16" height="16" rx="0" />
    </clipPath>
  </defs>
  <g clip-path="url(#master_svg0_544_05019)">
    <g>
      <rect x="0" y="0" width="16" height="16" rx="0" fill-opacity="0.009999999776482582" />
    </g>
    <g>
      <path
        d="M2.3134981875,3.02030001171875L12.9800921875,13.68688701171875Q13.0503921875,13.75718701171875,13.1422921875,13.79528701171875Q13.2341921875,13.83338701171875,13.3336921875,13.83338701171875Q13.4330921875,13.83338701171875,13.5249921875,13.79528701171875Q13.6168921875,13.75718701171875,13.6871921875,13.68688701171875Q13.7574921875,13.61658701171875,13.7955921875,13.52468701171875Q13.8336921875,13.43278701171875,13.8336921875,13.33338701171875Q13.8336921875,13.23388701171875,13.7955921875,13.14198701171875Q13.7574921875,13.05008701171875,13.6871921875,12.97978701171875L3.0206051875,2.31319301171875L3.0205451875,2.31313401171875Q2.9502191875,2.24280701171875,2.8583341875,2.2047470117187498Q2.7664483875,2.16668701171875,2.6669921875,2.16668701171875Q2.5675359875,2.16668701171875,2.4756501875,2.2047470117187498Q2.3837651875,2.24280701171875,2.3134391875,2.31313401171875Q2.2431121875,2.38346001171875,2.2050521874999998,2.47534501171875Q2.1669921875,2.56723081171875,2.1669921875,2.66668701171875Q2.1669921875,2.76614321171875,2.2050521874999998,2.85802901171875Q2.2431121875,2.94991401171875,2.3134391875,3.02024001171875L2.3134981875,3.02030001171875Z"
        fill-rule="evenodd" fill-opacity="1" />
    </g>
    <g>
      <path
        d="M3.0205451875,13.68688701171875L13.6871921875,3.02024001171875Q13.7574921875,2.94991401171875,13.7955921875,2.85802901171875Q13.8336921875,2.76614311171875,13.8336921875,2.66668701171875Q13.8336921875,2.56723091171875,13.7955921875,2.47534501171875Q13.7574921875,2.38346001171875,13.6871921875,2.31313401171875Q13.6168921875,2.24280801171875,13.5249921875,2.2047470117187498Q13.4330921875,2.16668701171875,13.3336921875,2.16668701171875Q13.2341921875,2.16668701171875,13.1422921875,2.2047470117187498Q13.0503921875,2.24280801171875,12.9800921875,2.31313401171875L2.3134391875,12.97978701171875Q2.2431121875,13.05008701171875,2.2050521874999998,13.14198701171875Q2.1669921875,13.23388701171875,2.1669921875,13.33338701171875Q2.1669921875,13.43278701171875,2.2050521874999998,13.52468701171875Q2.2431121875,13.61658701171875,2.3134391875,13.68688701171875Q2.3837651875,13.75718701171875,2.4756501875,13.79528701171875Q2.5675360875,13.83338701171875,2.6669921875,13.83338701171875Q2.7664483875,13.83338701171875,2.8583341875,13.79528701171875Q2.9502191875,13.75718701171875,3.0205451875,13.68688701171875Z"
        fill-rule="evenodd" fill-opacity="1" />
    </g>
  </g>
</svg>