<svg xmlns="http://www.w3.org/2000/svg" xmlns:xlink="http://www.w3.org/1999/xlink" version="1.1" width="24" height="24"
  viewBox="0 0 24 24">
  <defs>
    <clipPath id="master_svg0_544_08052">
      <rect x="0" y="0" width="24" height="24" rx="0" />
    </clipPath>
  </defs>
  <g clip-path="url(#master_svg0_544_08052)">
    <g>
      <rect x="0" y="0" width="24" height="24" rx="0" fill-opacity="0.009999999776482582" />
    </g>
    <g>
      <path
        d="M21.5,21L21.5,12Q21.5,11.9507543,21.4904,11.9024549Q21.4808,11.854155,21.4619,11.808658Q21.4431,11.763161,21.4157,11.722215Q21.3884,11.681269,21.3536,11.646447Q21.3187,11.611625,21.2778,11.584265Q21.2368,11.556906,21.1913,11.53806Q21.1458,11.519214999999999,21.0975,11.509607Q21.0492,11.5,21,11.5Q20.9508,11.5,20.9025,11.509607Q20.8542,11.519214999999999,20.8087,11.53806Q20.7632,11.556906,20.7222,11.584265Q20.6813,11.611625,20.6464,11.646447Q20.6116,11.681269,20.5843,11.722215Q20.5569,11.763161,20.5381,11.808658Q20.5192,11.854155,20.5096,11.9024549Q20.5,11.9507543,20.5,12L20.5,20.5L3.5,20.5L3.5,12.00415039Q3.5,11.9549047,3.490393,11.9066052Q3.480785,11.858306,3.4619400000000002,11.812809Q3.443094,11.767312,3.415735,11.726365Q3.388375,11.685419,3.353553,11.650597Q3.318731,11.615775,3.277785,11.588416Q3.236839,11.561056,3.191342,11.542211Q3.145845,11.523365,3.0975451,11.513758Q3.0492457,11.50415,3,11.50415Q2.9507543,11.50415,2.9024549,11.513758Q2.854155,11.523365,2.808658,11.542211Q2.763161,11.561056,2.722215,11.588416Q2.681269,11.615775,2.646447,11.650597Q2.611625,11.685419,2.584265,11.726365Q2.556906,11.767312,2.5380599999999998,11.812809Q2.519215,11.858306,2.509607,11.9066052Q2.5,11.9549047,2.5,12.00415039L2.5,21Q2.5,21.049239999999998,2.509607,21.097540000000002Q2.519215,21.14584,2.5380599999999998,21.19134Q2.556906,21.23684,2.584265,21.27778Q2.611625,21.318730000000002,2.646447,21.35355Q2.681269,21.388370000000002,2.722215,21.41573Q2.763161,21.443089999999998,2.808658,21.46194Q2.854155,21.48078,2.9024549,21.490389999999998Q2.9507543,21.5,3,21.5L21,21.5Q21.0492,21.5,21.0975,21.490389999999998Q21.1458,21.48078,21.1913,21.46194Q21.2368,21.443089999999998,21.2778,21.41573Q21.3187,21.388370000000002,21.3536,21.35355Q21.3884,21.318730000000002,21.4157,21.27778Q21.4431,21.23684,21.4619,21.19134Q21.4808,21.14584,21.4904,21.097540000000002Q21.5,21.049239999999998,21.5,21Z"
        fill-rule="evenodd"  fill-opacity="1" />
    </g>
    <g>
      <path
        d="M7.853613,11.146506L7.853553,11.146447Q7.783227,11.07612,7.691342,11.03806Q7.5994562,11,7.5,11Q7.4005438,11,7.308658,11.03806Q7.216773,11.07612,7.146447,11.146447Q7.07612,11.216773,7.03806,11.308658Q7,11.4005438,7,11.5Q7,11.5994562,7.03806,11.691342Q7.07612,11.783227,7.146447,11.853553L11.64645,16.35355Q11.68127,16.388370000000002,11.72221,16.41573Q11.76316,16.443089999999998,11.80866,16.46194Q11.85415,16.48078,11.90245,16.490389999999998Q11.95075,16.5,12,16.5Q12.049240000000001,16.5,12.09754,16.490389999999998Q12.14584,16.48078,12.19134,16.46194Q12.23684,16.443089999999998,12.27778,16.41573Q12.31873,16.388370000000002,12.35355,16.35355L16.85355,11.853553Q16.92388,11.783227,16.96194,11.691342Q17,11.5994562,17,11.5Q17,11.4005439,16.96194,11.308658Q16.92388,11.216773,16.85355,11.146447Q16.78323,11.076121,16.69134,11.03806Q16.59946,11,16.5,11Q16.40054,11,16.30866,11.03806Q16.21677,11.076121,16.14645,11.146447L12,15.29289L7.853613,11.146506Z"
        fill-rule="evenodd"  fill-opacity="1" />
    </g>
    <g>
      <path
        d="M11.49609375,3L11.49609375,16Q11.49609375,16.0492,11.50570075,16.0975Q11.515308749999999,16.1458,11.53415375,16.1913Q11.55299975,16.236800000000002,11.58035875,16.2778Q11.60771875,16.3187,11.64254075,16.3536Q11.67736275,16.3884,11.71830875,16.4157Q11.75925475,16.4431,11.80475175,16.4619Q11.85024875,16.480800000000002,11.89854865,16.4904Q11.94684805,16.5,11.99609375,16.5Q12.04533945,16.5,12.09363885,16.4904Q12.14193875,16.480800000000002,12.18743575,16.4619Q12.23293275,16.4431,12.27387875,16.4157Q12.31482475,16.3884,12.34964675,16.3536Q12.38446875,16.3187,12.41182875,16.2778Q12.43918775,16.236800000000002,12.45803375,16.1913Q12.476878750000001,16.1458,12.48648675,16.0975Q12.49609375,16.0492,12.49609375,16L12.49609375,3Q12.49609375,2.9507543,12.48648675,2.9024549Q12.476878750000001,2.854155,12.45803375,2.808658Q12.43918775,2.763161,12.41182875,2.722215Q12.38446875,2.681269,12.34964675,2.646447Q12.31482475,2.611625,12.27387875,2.584265Q12.23293275,2.556906,12.18743575,2.5380599999999998Q12.14193875,2.519215,12.09363885,2.509607Q12.04533945,2.5,11.99609375,2.5Q11.94684805,2.5,11.89854865,2.509607Q11.85024875,2.519215,11.80475175,2.5380599999999998Q11.75925475,2.556906,11.71830875,2.584265Q11.67736275,2.611625,11.64254075,2.646447Q11.60771875,2.681269,11.58035875,2.722215Q11.55299975,2.763161,11.53415375,2.808658Q11.515308749999999,2.854155,11.50570075,2.9024549Q11.49609375,2.9507543,11.49609375,3Z"
        fill-rule="evenodd"  fill-opacity="1" />
    </g>
  </g>
</svg>