<svg xmlns="http://www.w3.org/2000/svg" xmlns:xlink="http://www.w3.org/1999/xlink"  version="1.1" width="24" height="24" viewBox="0 0 24 24"><defs><clipPath id="master_svg0_1231_7549"><rect x="0" y="0" width="24" height="24" rx="0"/></clipPath></defs><g clip-path="url(#master_svg0_1231_7549)"><g><g><rect x="0" y="0" width="24" height="24" rx="0"  fill-opacity="0.009999999776482582"/></g><g><g><g><path d="M17.9969,19.50124769515991L3.0324999999999998,19.50124769515991Q2.98325,19.50124769515991,2.934951,19.51084769515991Q2.8866519999999998,19.520447695159913,2.841154,19.53934769515991Q2.795657,19.55814769515991,2.754711,19.58554769515991Q2.713765,19.612847695159914,2.678943,19.647747695159914Q2.644121,19.68254769515991,2.616761,19.723447695159912Q2.5894019999999998,19.764447695159912,2.570556,19.809947695159913Q2.551711,19.85544769515991,2.542104,19.903747695159915Q2.532496,19.952047695159912,2.532496,20.00124769515991Q2.532496,20.04714769515991,2.540844,20.092247695159912Q2.548755,20.135047695159912,2.563927,20.175747695159913Q2.5790990000000003,20.21644769515991,2.601076,20.25404769515991Q2.6230539999999998,20.291547695159913,2.651177,20.32464769515991Q2.679299,20.35784769515991,2.712723,20.38564769515991Q2.746148,20.413447695159913,2.783869,20.435047695159913Q2.8215909999999997,20.456647695159912,2.862479,20.471447695159913Q2.9033670000000003,20.48624769515991,2.946192,20.49374769515991Q2.9890179999999997,20.50124769515991,3.0324999999999998,20.50124769515991L17.9969,20.50124769515991Q19.5651,20.50124769515991,20.8031,19.60474769515991Q22.5,18.37604769515991,22.5,15.992147695159913Q22.5,13.608037695159911,20.8017,12.386887695159912Q19.568,11.499807695159912,17.9969,11.499807695159912L6.09091,11.499807695159912Q4.8308599999999995,11.499807695159912,3.82289,10.786587695159913Q2.5,9.850537695159911,2.5,7.983437695159912Q2.5,6.121507695159912,3.81919,5.205867695159912Q4.81736,4.513047695159912,6.09091,4.513046695159912L20.4949,4.513047695159912Q20.5441,4.513047695159912,20.5924,4.503440695159912Q20.6407,4.493832695159912,20.6862,4.474987695159912Q20.7317,4.456141695159912,20.7727,4.428782695159912Q20.8136,4.401422695159912,20.8485,4.366600695159912Q20.8833,4.331778695159912,20.9106,4.290832695159912Q20.938,4.249886695159912,20.9568,4.204389695159912Q20.9757,4.158892695159912,20.9853,4.110592795159912Q20.9949,4.062293395159912,20.9949,4.013047695159912Q20.9949,3.963801995159912,20.9853,3.915502595159912Q20.9757,3.867202695159912,20.9568,3.821705695159912Q20.938,3.7762086951599123,20.9106,3.735262695159912Q20.8833,3.694316695159912,20.8485,3.6594946951599123Q20.8136,3.624672695159912,20.7727,3.597312695159912Q20.7317,3.5699536951599122,20.6862,3.551107695159912Q20.6407,3.532262695159912,20.5924,3.522654695159912Q20.5441,3.513047695159912,20.4949,3.513047695159912L6.09091,3.513046695159912Q4.50432,3.513046695159912,3.24899,4.384365695159912Q1.5,5.598327695159912,1.5,7.983437695159912Q1.5,10.367977695159912,3.24529,11.602907695159912Q4.51285,12.499807695159912,6.09091,12.499807695159912L17.9969,12.499807695159912Q19.2458,12.499807695159912,20.2179,13.198787695159911Q21.5,14.120647695159912,21.5,15.992147695159913Q21.5,17.86544769515991,20.2166,18.794847695159913Q19.241,19.50124769515991,17.9969,19.50124769515991Z" fill-rule="evenodd"  fill-opacity="1"/></g><g><path d="M3.67079140625,22.354951992034913L3.67096140625,22.355111992034914Q3.74118140625,22.424681992034913,3.8325914062499997,22.46228199203491Q3.92399140625,22.49989199203491,4.02284140625,22.49989199203491L4.02520140625,22.49989199203491Q4.12465140625,22.49942199203491,4.21636140625,22.46093199203491Q4.308061406249999,22.422431992034912,4.37806140625,22.351771992034912Q4.447621406250001,22.281551992034913,4.48523140625,22.19014199203491Q4.52284140625,22.098741992034913,4.52284140625,21.999901992034914L4.52283140625,21.99753199203491Q4.52236140625,21.89808199203491,4.48387140625,21.80637199203491Q4.4453714062500005,21.714671992034912,4.37471140625,21.64467199203491L2.73858040625,20.02393199203491L4.38025140625,18.34585699203491Q4.44880140625,18.27578199203491,4.48582140625,18.18500799203491Q4.52284140625,18.094233792034913,4.52284140625,17.996201992034916L4.52281140625,17.990718502034913Q4.521711406250001,17.891267992034912,4.48265140625,17.799805992034912Q4.44358140625,17.70834299203491,4.37249140625,17.63879299203491Q4.30242140625,17.57023799203491,4.21164140625,17.533219992034912Q4.12087140625,17.496201992034912,4.02284140625,17.496201992034912L4.01735140625,17.49623199203491Q3.91790140625,17.497322992034913,3.82644140625,17.53638799203491Q3.73498140625,17.575453992034912,3.6654314062499997,17.646546992034914L1.67628140625,19.679811992034914Q1.64198140625,19.71487199203491,1.61514840625,19.755931992034913Q1.58831540625,19.79698199203491,1.56997240625,19.842471992034913Q1.55162940625,19.887961992034914,1.54247540625,19.93615199203491Q1.53332240625,19.984341992034913,1.5337064062499999,20.03339199203491Q1.53409140625,20.082431992034913,1.54400040625,20.130471992034913Q1.55390940625,20.178511992034913,1.57296340625,20.22370199203491Q1.59201840625,20.268901992034912,1.61949240625,20.309531992034913Q1.64696640625,20.350161992034913,1.68181240625,20.384681992034913L3.67079140625,22.354951992034913Z" fill-rule="evenodd"  fill-opacity="1"/></g></g><g transform="matrix(-1,0,0,1,42.021484375,0)"><path d="M22.6478421875,6.3356853866577145L22.6480121875,6.335845386657715Q22.7182321875,6.405415386657715,22.8096421875,6.443015386657715Q22.9010421875,6.480625386657715,22.9998921875,6.480625386657715L23.002252187499998,6.480625386657715Q23.1017021875,6.480155386657715,23.1934121875,6.441665386657715Q23.2851121875,6.403165386657715,23.3551121875,6.332505386657715Q23.4246721875,6.262285386657715,23.4622821875,6.170875386657714Q23.4998921875,6.079475386657715,23.4998921875,5.980635386657715L23.4998821875,5.978265386657715Q23.4994121875,5.878815386657715,23.4609221875,5.787105386657714Q23.4224221875,5.695405386657715,23.3517621875,5.6254053866577145L21.7156311875,4.004665386657715L23.3573021875,2.3265903866577147Q23.4258521875,2.256515386657715,23.4628721875,2.165741386657715Q23.4998921875,2.074967186657715,23.4998921875,1.9769353866577173L23.4998621875,1.9714518966577148Q23.4987621875,1.8720013866577148,23.4597021875,1.7805393866577148Q23.4206321875,1.6890763866577148,23.3495421875,1.6195263866577148Q23.2794721875,1.5509713866577148,23.1886921875,1.5139533866577148Q23.0979221875,1.4769353866577148,22.9998921875,1.4769353866577148L22.9944021875,1.4769653866577148Q22.8949521875,1.4780563866577148,22.8034921875,1.517121386657715Q22.7120321875,1.5561873866577147,22.6424821875,1.6272803866577148L20.6533321875,3.6605453866577147Q20.6190321875,3.6956053866577148,20.5921991875,3.736665386657715Q20.5653661875,3.777715386657715,20.5470231875,3.823205386657715Q20.5286801875,3.868695386657715,20.5195261875,3.916885386657715Q20.5103731875,3.965075386657715,20.5107571875,4.014125386657715Q20.5111421875,4.063165386657715,20.5210511875,4.111205386657715Q20.5309601875,4.159245386657715,20.5500141875,4.204435386657715Q20.5690691875,4.249635386657715,20.5965431875,4.290265386657715Q20.6240171875,4.330895386657715,20.6588631875,4.365415386657714L22.6478421875,6.3356853866577145Z" fill-rule="evenodd"  fill-opacity="1"/></g></g></g></g></svg>