<svg xmlns="http://www.w3.org/2000/svg" xmlns:xlink="http://www.w3.org/1999/xlink" version="1.1" width="24" height="24"
  viewBox="0 0 24 24">
  <defs>
    <clipPath id="master_svg0_544_08059">
      <rect x="0" y="0" width="24" height="24" rx="0" />
    </clipPath>
  </defs>
  <g clip-path="url(#master_svg0_544_08059)">
    <g>
      <rect x="0" y="0" width="24" height="24" rx="0" fill-opacity="0.009999999776482582" />
    </g>
    <g>
      <path
        d="M4,22L4,5Q4,4.9507543,4.009607,4.9024549Q4.019215,4.854155,4.03806,4.808658Q4.056906,4.763161,4.084265,4.722215Q4.111625,4.681269,4.146447,4.646447Q4.181269,4.611625,4.222215,4.584265Q4.263161,4.556906,4.308658,4.53806Q4.354155,4.519215,4.4024549,4.509607Q4.4507543,4.5,4.5,4.5L19.5,4.5Q19.5492,4.5,19.5975,4.509607Q19.6458,4.519215,19.6913,4.53806Q19.736800000000002,4.556906,19.7778,4.584265Q19.8187,4.611625,19.8536,4.646447Q19.8884,4.681269,19.9157,4.722215Q19.9431,4.763161,19.9619,4.808658Q19.980800000000002,4.854155,19.9904,4.9024549Q20,4.9507543,20,5L20,22Q20,22.0492,19.9904,22.0975Q19.980800000000002,22.1458,19.9619,22.1913Q19.9431,22.2368,19.9157,22.2778Q19.8884,22.3187,19.8536,22.3536Q19.8187,22.3884,19.7778,22.4157Q19.736800000000002,22.4431,19.6913,22.4619Q19.6458,22.4808,19.5975,22.4904Q19.5492,22.5,19.5,22.5L4.5,22.5Q4.4507543,22.5,4.4024549,22.4904Q4.354155,22.4808,4.308658,22.4619Q4.263161,22.4431,4.222215,22.4157Q4.181269,22.3884,4.146447,22.3536Q4.111625,22.3187,4.084265,22.2778Q4.056906,22.2368,4.03806,22.1913Q4.019215,22.1458,4.009607,22.0975Q4,22.0492,4,22ZM19,5.5L5,5.5L5,21.5L19,21.5L19,5.5Z"
        fill-rule="evenodd" fill-opacity="1" />
    </g>
    <g>
      <path
        d="M9.5,10L9.5,16.5Q9.5,16.54925,9.509607,16.597540000000002Q9.519214999999999,16.64584,9.53806,16.69134Q9.556906,16.73684,9.584265,16.77778Q9.611625,16.818730000000002,9.646447,16.85355Q9.681269,16.888370000000002,9.722215,16.91573Q9.763161,16.943089999999998,9.808658,16.96194Q9.854155,16.98078,9.9024549,16.990389999999998Q9.9507543,17,10,17Q10.0492457,17,10.0975451,16.990389999999998Q10.145845,16.98078,10.191342,16.96194Q10.236839,16.943089999999998,10.277785,16.91573Q10.318731,16.888370000000002,10.353553,16.85355Q10.388375,16.818730000000002,10.415735,16.77778Q10.443094,16.73684,10.46194,16.69134Q10.480785000000001,16.64584,10.490393,16.597540000000002Q10.5,16.54925,10.5,16.5L10.5,10Q10.5,9.9507543,10.490393,9.9024549Q10.480785000000001,9.854155,10.46194,9.808658Q10.443094,9.763161,10.415735,9.722215Q10.388375,9.681269,10.353553,9.646447Q10.318731,9.611625,10.277785,9.584265Q10.236839,9.556906,10.191342,9.53806Q10.145845,9.519214999999999,10.0975451,9.509607Q10.0492457,9.5,10,9.5Q9.9507543,9.5,9.9024549,9.509607Q9.854155,9.519214999999999,9.808658,9.53806Q9.763161,9.556906,9.722215,9.584265Q9.681269,9.611625,9.646447,9.646447Q9.611625,9.681269,9.584265,9.722215Q9.556906,9.763161,9.53806,9.808658Q9.519214999999999,9.854155,9.509607,9.9024549Q9.5,9.9507543,9.5,10Z"
        fill-rule="evenodd" fill-opacity="1" />
    </g>
    <g>
      <path
        d="M13.5,10L13.5,16.5Q13.5,16.54925,13.509607,16.597540000000002Q13.519214999999999,16.64584,13.53806,16.69134Q13.556906,16.73684,13.584265,16.77778Q13.611625,16.818730000000002,13.646447,16.85355Q13.681269,16.888370000000002,13.722215,16.91573Q13.763161,16.943089999999998,13.808658,16.96194Q13.854155,16.98078,13.9024549,16.990389999999998Q13.9507543,17,14,17Q14.0492457,17,14.0975451,16.990389999999998Q14.145845,16.98078,14.191342,16.96194Q14.236839,16.943089999999998,14.277785,16.91573Q14.318731,16.888370000000002,14.353553,16.85355Q14.388375,16.818730000000002,14.415735,16.77778Q14.443094,16.73684,14.46194,16.69134Q14.480785000000001,16.64584,14.490393,16.597540000000002Q14.5,16.54925,14.5,16.5L14.5,10Q14.5,9.9507543,14.490393,9.9024549Q14.480785000000001,9.854155,14.46194,9.808658Q14.443094,9.763161,14.415735,9.722215Q14.388375,9.681269,14.353553,9.646447Q14.318731,9.611625,14.277785,9.584265Q14.236839,9.556906,14.191342,9.53806Q14.145845,9.519214999999999,14.0975451,9.509607Q14.0492457,9.5,14,9.5Q13.9507543,9.5,13.9024549,9.509607Q13.854155,9.519214999999999,13.808658,9.53806Q13.763161,9.556906,13.722215,9.584265Q13.681269,9.611625,13.646447,9.646447Q13.611625,9.681269,13.584265,9.722215Q13.556906,9.763161,13.53806,9.808658Q13.519214999999999,9.854155,13.509607,9.9024549Q13.5,9.9507543,13.5,10Z"
        fill-rule="evenodd" fill-opacity="1" />
    </g>
    <g>
      <path
        d="M2,5.5L22,5.5Q22.0492,5.5,22.0975,5.490393Q22.1458,5.480785,22.1913,5.46194Q22.2368,5.443094,22.2778,5.415735Q22.3187,5.388375,22.3536,5.353553Q22.3884,5.318731,22.4157,5.277785Q22.4431,5.236839,22.4619,5.191342Q22.4808,5.145845,22.4904,5.0975451Q22.5,5.0492457,22.5,5Q22.5,4.9507543,22.4904,4.9024549Q22.4808,4.854155,22.4619,4.808658Q22.4431,4.763161,22.4157,4.722215Q22.3884,4.681269,22.3536,4.646447Q22.3187,4.611625,22.2778,4.584265Q22.2368,4.556906,22.1913,4.53806Q22.1458,4.519215,22.0975,4.509607Q22.0492,4.5,22,4.5L2,4.5Q1.9507543,4.5,1.9024549,4.509607Q1.854155,4.519215,1.8086579999999999,4.53806Q1.763161,4.556906,1.722215,4.584265Q1.681269,4.611625,1.646447,4.646447Q1.611625,4.681269,1.584265,4.722215Q1.5569060000000001,4.763161,1.53806,4.808658Q1.519215,4.854155,1.509607,4.9024549Q1.5,4.9507543,1.5,5Q1.5,5.0492457,1.509607,5.0975451Q1.519215,5.145845,1.53806,5.191342Q1.5569060000000001,5.236839,1.584265,5.277785Q1.611625,5.318731,1.646447,5.353553Q1.681269,5.388375,1.722215,5.415735Q1.763161,5.443094,1.8086579999999999,5.46194Q1.854155,5.480785,1.9024549,5.490393Q1.9507543,5.5,2,5.5Z"
        fill-rule="evenodd" fill-opacity="1" />
    </g>
    <g>
      <path
        d="M8,5.5L16,5.5Q16.125790000000002,5.5,16.2366,5.44048Q16.279980000000002,5.4171700000000005,16.31799,5.38585Q16.35599,5.3545300000000005,16.38715,5.3164Q16.41832,5.27827,16.44144,5.23479Q16.464570000000002,5.19132,16.47877,5.144159999999999Q16.49296,5.09701,16.49769,5.04799Q16.50242,4.99897,16.49749,4.94997Q16.492559999999997,4.90097,16.47817,4.85388Q16.46378,4.80678,16.44048,4.7634L14.82903,1.763398Q14.796949999999999,1.703689,14.75014,1.654673Q14.703330000000001,1.605657,14.64516,1.570872Q14.58699,1.536087,14.52166,1.518044Q14.456330000000001,1.5,14.38855,1.5L9.6445,1.5Q9.57726,1.5,9.51242,1.517762Q9.44757,1.535523,9.38972,1.569784Q9.33186,1.604046,9.28512,1.652372Q9.23837,1.700699,9.20605,1.759658L7.561553,4.75966Q7.5,4.87195,7.5,5Q7.5,5.04925,7.509607,5.09754Q7.519215,5.14584,7.53806,5.19134Q7.556906,5.23684,7.584265,5.27778Q7.611625,5.31873,7.646447,5.35355Q7.681269,5.38837,7.722215,5.41573Q7.763161,5.44309,7.808658,5.46194Q7.854155,5.48078,7.9024549,5.49039Q7.9507543,5.5,8,5.5ZM15.16386,4.5L8.844278,4.5L9.94061,2.5L14.089559999999999,2.5L15.16386,4.5Z"
        fill-rule="evenodd" fill-opacity="1" />
    </g>
  </g>
</svg>