<?xml version="1.0" standalone="no"?><!DOCTYPE svg PUBLIC "-//W3C//DTD SVG 1.1//EN" "http://www.w3.org/Graphics/SVG/1.1/DTD/svg11.dtd"><svg t="1723110038722" class="icon" viewBox="0 0 1024 1024" version="1.1" xmlns="http://www.w3.org/2000/svg" p-id="3175" width="18" height="18" xmlns:xlink="http://www.w3.org/1999/xlink"><path d="M512 85.333333C276.352 85.333333 85.333333 276.352 85.333333 512s191.018667 426.666667 426.666667 426.666667 426.666667-191.018667 426.666667-426.666667S747.648 85.333333 512 85.333333zM671.061333 662.848c-19.242667 19.221333-50.410667 19.221333-69.632 0l-81.216-81.216-81.216 81.216c-19.242667 19.221333-50.410667 19.221333-69.632 0-19.221333-19.242667-19.221333-50.410667 0-69.632L450.581333 512l-81.237333-81.216c-19.221333-19.242667-19.221333-50.410667 0-69.632 19.242667-19.221333 50.410667-19.221333 69.632 0l81.216 81.216 81.216-81.216c19.242667-19.221333 50.410667-19.242667 69.632 0 19.221333 19.242667 19.221333 50.410667 0 69.632L589.824 512l81.237333 81.216C690.282667 612.458667 690.304 643.626667 671.061333 662.848z" fill="#d81e06" p-id="3176"></path></svg>