<svg xmlns="http://www.w3.org/2000/svg" xmlns:xlink="http://www.w3.org/1999/xlink"  version="1.1"><defs><clipPath id="master_svg0_21_4442"><rect x="0" y="0" width="16" height="16" rx="0"/></clipPath></defs><g clip-path="url(#master_svg0_21_4442)"><g><path d="M13.3955078125,11.166656494140625L11.8384378125,11.166656494140625Q11.7891978125,11.166656494140625,11.7408978125,11.176266494140625Q11.6925978125,11.185866494140624,11.6470978125,11.204716494140625Q11.6015978125,11.223556494140626,11.5606578125,11.250916494140625Q11.5197078125,11.278276494140625,11.4848878125,11.313106494140625Q11.4500678125,11.347926494140625,11.4227078125,11.388866494140625Q11.395347812499999,11.429816494140624,11.3764978125,11.475316494140625Q11.357657812500001,11.520806494140626,11.348047812499999,11.569106494140625Q11.3384378125,11.617406494140624,11.3384378125,11.666656494140625Q11.3384378125,11.715856494140626,11.348047812499999,11.764156494140625Q11.357657812500001,11.812456494140624,11.3764978125,11.857956494140625Q11.395347812499999,11.903456494140626,11.4227078125,11.944456494140624Q11.4500678125,11.985356494140625,11.4848878125,12.020256494140625Q11.5197078125,12.055056494140626,11.5606578125,12.082356494140624Q11.6015978125,12.109756494140624,11.6470978125,12.128556494140625Q11.6925978125,12.147456494140625,11.7408978125,12.157056494140624Q11.7891978125,12.166656494140625,11.8384378125,12.166656494140625L13.3955078125,12.166656494140625Q13.9909378125,12.166656494140625,14.4120078125,11.745656494140626Q14.8330078125,11.324586494140625,14.8330078125,10.729156494140625L14.8330078125,2.604156494140625Q14.8330078125,2.008724494140625,14.4120078125,1.587690694140625Q13.9909378125,1.166656494140625,13.3955078125,1.166656494140625L5.2705078125,1.166656494140625Q4.6750758125,1.166656494140625,4.2540420125,1.587690594140625Q3.8330078125,2.008724494140625,3.8330078125,2.604156494140625L3.8330078125,4.143856494140625Q3.8330078125,4.1931064941406255,3.8426148125,4.241396494140625Q3.8522228125,4.289696494140625,3.8710678124999998,4.335196494140625Q3.8899138125,4.380696494140625,3.9172728125,4.421636494140625Q3.9446328125,4.462586494140625,3.9794548125,4.497406494140625Q4.0142768125,4.532236494140625,4.0552228125,4.559586494140625Q4.0961688125,4.586946494140625,4.1416658125,4.605796494140625Q4.1871628125,4.624636494140625,4.2354627125,4.6342464941406245Q4.2837621125,4.643856494140625,4.3330078125,4.643856494140625Q4.3822535125,4.643856494140625,4.4305529125,4.6342464941406245Q4.4788528125,4.624636494140625,4.5243498125,4.605796494140625Q4.5698468125,4.586946494140625,4.6107928125,4.559586494140625Q4.6517388125,4.532236494140625,4.6865608125,4.497406494140625Q4.7213828125,4.462586494140625,4.7487428125,4.421636494140625Q4.7761018125,4.380696494140625,4.7949478125,4.335196494140625Q4.8137928125,4.289696494140625,4.8234008125,4.241396494140625Q4.8330078125,4.1931064941406255,4.8330078125,4.143856494140625L4.8330078125,2.604156494140625Q4.8330078125,2.422938494140625,4.9611488125,2.294797494140625Q5.0892898125,2.166656494140625,5.2705078125,2.166656494140625L13.3955078125,2.166656494140625Q13.5767278125,2.166656494140625,13.7048678125,2.294797494140625Q13.8330078125,2.422938494140625,13.8330078125,2.604156494140625L13.8330078125,10.729156494140625Q13.8330078125,10.910376494140625,13.7048678125,11.038516494140625Q13.5767278125,11.166656494140625,13.3955078125,11.166656494140625Z" fill-rule="evenodd" fill-opacity="1"/></g><g><path d="M12.1669921875,13.395843505859375L12.1669921875,5.270843505859375Q12.1669921875,4.675411505859375,11.7459921875,4.254377705859375Q11.3249221875,3.833343505859375,10.7294921875,3.833343505859375L2.6044921875,3.833343505859375Q2.0090601875,3.833343505859375,1.5880263875,4.254377605859375Q1.1669921875,4.675411505859375,1.1669921875,5.270843505859375L1.1669921875,13.395843505859375Q1.1669921875,13.991273505859375,1.5880263875,14.412343505859376Q2.0090601875,14.833343505859375,2.6044921875,14.833343505859375L10.7294921875,14.833343505859375Q11.3249221875,14.833343505859375,11.7459921875,14.412343505859376Q12.1669921875,13.991273505859375,12.1669921875,13.395843505859375ZM11.0388521875,4.961484505859375Q11.1669921875,5.089625505859375,11.1669921875,5.270843505859375L11.1669921875,13.395843505859375Q11.1669921875,13.577063505859375,11.0388521875,13.705203505859375Q10.9107121875,13.833343505859375,10.7294921875,13.833343505859375L2.6044921875,13.833343505859375Q2.4232741875,13.833343505859375,2.2951331875,13.705203505859375Q2.1669921875,13.577063505859375,2.1669921875,13.395843505859375L2.1669921875,5.270843505859375Q2.1669921875,5.089625505859375,2.2951331875,4.961484505859375Q2.4232741875,4.833343505859375,2.6044921875,4.833343505859375L10.7294921875,4.833343505859375Q10.9107121875,4.833343505859375,11.0388521875,4.961484505859375Z"   fill-opacity="1"/></g></g></svg>