<svg xmlns="http://www.w3.org/2000/svg" xmlns:xlink="http://www.w3.org/1999/xlink" version="1.1" width="16" height="16"
  viewBox="0 0 16 16">
  <defs>
    <clipPath id="master_svg0_21_5084">
      <rect x="0" y="0" width="16" height="16" rx="0" />
    </clipPath>
  </defs>
  <g clip-path="url(#master_svg0_21_5084)">
    <g>
      <rect x="0" y="0" width="16" height="16" rx="0" fill-opacity="0.009999999776482582" />
    </g>
    <g>
      <path
        d="M2.5,14.66661298828125L2.5,3.33331298828125Q2.5,3.28406728828125,2.509607,3.23576788828125Q2.519215,3.18746798828125,2.5380599999999998,3.14197098828125Q2.556906,3.09647398828125,2.584265,3.05552798828125Q2.611625,3.01458198828125,2.646447,2.97975998828125Q2.681269,2.94493798828125,2.722215,2.91757798828125Q2.763161,2.89021898828125,2.808658,2.8713729882812498Q2.854155,2.85252798828125,2.9024549,2.84291998828125Q2.9507543,2.83331298828125,3,2.83331298828125L13,2.83331298828125Q13.0492,2.83331298828125,13.0975,2.84291998828125Q13.1458,2.85252798828125,13.1913,2.8713729882812498Q13.2368,2.89021898828125,13.2778,2.91757798828125Q13.3187,2.94493798828125,13.3536,2.97975998828125Q13.3884,3.01458198828125,13.4157,3.05552798828125Q13.4431,3.09647398828125,13.4619,3.14197098828125Q13.4808,3.18746798828125,13.4904,3.23576788828125Q13.5,3.28406728828125,13.5,3.33331298828125L13.5,14.66661298828125Q13.5,14.71591298828125,13.4904,14.76421298828125Q13.4808,14.81251298828125,13.4619,14.85801298828125Q13.4431,14.90351298828125,13.4157,14.94441298828125Q13.3884,14.98541298828125,13.3536,15.02021298828125Q13.3187,15.05501298828125,13.2778,15.08241298828125Q13.2368,15.10971298828125,13.1913,15.12861298828125Q13.1458,15.14741298828125,13.0975,15.15701298828125Q13.0492,15.16661298828125,13,15.16661298828125L3,15.16661298828125Q2.9507543,15.16661298828125,2.9024549,15.15701298828125Q2.854155,15.14741298828125,2.808658,15.12861298828125Q2.763161,15.10971298828125,2.722215,15.08241298828125Q2.681269,15.05501298828125,2.646447,15.02021298828125Q2.611625,14.98541298828125,2.584265,14.94441298828125Q2.556906,14.90351298828125,2.5380599999999998,14.85801298828125Q2.519215,14.81251298828125,2.509607,14.76421298828125Q2.5,14.71591298828125,2.5,14.66661298828125ZM12.5,3.83331298828125L3.5,3.83331298828125L3.5,14.16661298828125L12.5,14.16661298828125L12.5,3.83331298828125Z"
        fill-rule="evenodd" fill-opacity="1" />
    </g>
    <g>
      <path
        d="M6.16650390625,6.66668701171875L6.16650390625,11.00001701171875Q6.16650390625,11.04926701171875,6.17611090625,11.09756701171875Q6.18571890625,11.14586701171875,6.20456390625,11.19135701171875Q6.22340990625,11.236857011718751,6.25076890625,11.27780701171875Q6.27812890625,11.318747011718749,6.31295090625,11.35357701171875Q6.34777290625,11.38839701171875,6.38871890625,11.41575701171875Q6.42966490625,11.443117011718751,6.47516190625,11.46195701171875Q6.52065890625,11.480807011718749,6.56895880625,11.490417011718751Q6.61725820625,11.50001701171875,6.66650390625,11.50001701171875Q6.71574960625,11.50001701171875,6.76404900625,11.490417011718751Q6.81234890625,11.480807011718749,6.85784590625,11.46195701171875Q6.90334290625,11.443117011718751,6.94428890625,11.41575701171875Q6.98523490625,11.38839701171875,7.02005690625,11.35357701171875Q7.05487890625,11.318747011718749,7.08223890625,11.27780701171875Q7.10959790625,11.236857011718751,7.12844390625,11.19135701171875Q7.14728890625,11.14586701171875,7.15689690625,11.09756701171875Q7.16650390625,11.04926701171875,7.16650390625,11.00001701171875L7.16650390625,6.66668701171875Q7.16650390625,6.61744131171875,7.15689690625,6.56914191171875Q7.14728890625,6.52084201171875,7.12844390625,6.47534501171875Q7.10959790625,6.42984801171875,7.08223890625,6.38890201171875Q7.05487890625,6.34795601171875,7.02005690625,6.31313401171875Q6.98523490625,6.27831201171875,6.94428890625,6.25095201171875Q6.90334290625,6.22359301171875,6.85784590625,6.20474701171875Q6.81234890625,6.18590201171875,6.76404900625,6.17629401171875Q6.71574960625,6.16668701171875,6.66650390625,6.16668701171875Q6.61725820625,6.16668701171875,6.56895880625,6.17629401171875Q6.52065890625,6.18590201171875,6.47516190625,6.20474701171875Q6.42966490625,6.22359301171875,6.38871890625,6.25095201171875Q6.34777290625,6.27831201171875,6.31295090625,6.31313401171875Q6.27812890625,6.34795601171875,6.25076890625,6.38890201171875Q6.22340990625,6.42984801171875,6.20456390625,6.47534501171875Q6.18571890625,6.52084201171875,6.17611090625,6.56914191171875Q6.16650390625,6.61744131171875,6.16650390625,6.66668701171875Z"
        fill-rule="evenodd" fill-opacity="1" />
    </g>
    <g>
      <path
        d="M8.83349609375,6.66668701171875L8.83349609375,11.00001701171875Q8.83349609375,11.04926701171875,8.84310309375,11.09756701171875Q8.852711093749999,11.14586701171875,8.87155609375,11.19135701171875Q8.89040209375,11.236857011718751,8.91776109375,11.27780701171875Q8.94512109375,11.318747011718749,8.97994309375,11.35357701171875Q9.01476509375,11.38839701171875,9.05571109375,11.41575701171875Q9.09665709375,11.443117011718751,9.14215409375,11.46195701171875Q9.18765109375,11.480807011718749,9.23595099375,11.490417011718751Q9.28425039375,11.50001701171875,9.33349609375,11.50001701171875Q9.38274179375,11.50001701171875,9.43104119375,11.490417011718751Q9.47934109375,11.480807011718749,9.52483809375,11.46195701171875Q9.57033509375,11.443117011718751,9.61128109375,11.41575701171875Q9.65222709375,11.38839701171875,9.68704909375,11.35357701171875Q9.72187109375,11.318747011718749,9.74923109375,11.27780701171875Q9.77659009375,11.236857011718751,9.79543609375,11.19135701171875Q9.814281093750001,11.14586701171875,9.82388909375,11.09756701171875Q9.83349609375,11.04926701171875,9.83349609375,11.00001701171875L9.83349609375,6.66668701171875Q9.83349609375,6.61744131171875,9.82388909375,6.56914191171875Q9.814281093750001,6.52084201171875,9.79543609375,6.47534501171875Q9.77659009375,6.42984801171875,9.74923109375,6.38890201171875Q9.72187109375,6.34795601171875,9.68704909375,6.31313401171875Q9.65222709375,6.27831201171875,9.61128109375,6.25095201171875Q9.57033509375,6.22359301171875,9.52483809375,6.20474701171875Q9.47934109375,6.18590201171875,9.43104119375,6.17629401171875Q9.38274179375,6.16668701171875,9.33349609375,6.16668701171875Q9.28425039375,6.16668701171875,9.23595099375,6.17629401171875Q9.18765109375,6.18590201171875,9.14215409375,6.20474701171875Q9.09665709375,6.22359301171875,9.05571109375,6.25095201171875Q9.01476509375,6.27831201171875,8.97994309375,6.31313401171875Q8.94512109375,6.34795601171875,8.91776109375,6.38890201171875Q8.89040209375,6.42984801171875,8.87155609375,6.47534501171875Q8.852711093749999,6.52084201171875,8.84310309375,6.56914191171875Q8.83349609375,6.61744131171875,8.83349609375,6.66668701171875Z"
        fill-rule="evenodd" fill-opacity="1" />
    </g>
    <g>
      <path
        d="M1.33349609375,3.83331298828125L14.66679609375,3.83331298828125Q14.71609609375,3.83331298828125,14.76439609375,3.82370598828125Q14.81269609375,3.81409798828125,14.85819609375,3.7952529882812502Q14.90369609375,3.77640698828125,14.94459609375,3.74904798828125Q14.98559609375,3.72168798828125,15.02039609375,3.68686598828125Q15.05519609375,3.65204398828125,15.08259609375,3.61109798828125Q15.10989609375,3.57015198828125,15.12879609375,3.52465498828125Q15.14759609375,3.47915798828125,15.15719609375,3.43085808828125Q15.16679609375,3.38255868828125,15.16679609375,3.33331298828125Q15.16679609375,3.28406728828125,15.15719609375,3.23576788828125Q15.14759609375,3.18746798828125,15.12879609375,3.14197098828125Q15.10989609375,3.09647398828125,15.08259609375,3.05552798828125Q15.05519609375,3.01458198828125,15.02039609375,2.97975998828125Q14.98559609375,2.94493798828125,14.94459609375,2.91757798828125Q14.90369609375,2.89021898828125,14.85819609375,2.8713729882812498Q14.81269609375,2.85252798828125,14.76439609375,2.84291998828125Q14.71609609375,2.83331298828125,14.66679609375,2.83331298828125L1.33349609375,2.83331298828125Q1.28425039375,2.83331298828125,1.23595099375,2.84291998828125Q1.18765109375,2.85252798828125,1.1421540937499999,2.8713729882812498Q1.09665709375,2.89021898828125,1.05571109375,2.91757798828125Q1.01476509375,2.94493798828125,0.97994309375,2.97975998828125Q0.94512109375,3.01458198828125,0.91776109375,3.05552798828125Q0.89040209375,3.09647398828125,0.87155609375,3.14197098828125Q0.85271109375,3.18746798828125,0.8431030937499999,3.23576788828125Q0.83349609375,3.28406728828125,0.83349609375,3.33331298828125Q0.83349609375,3.38255868828125,0.8431030937499999,3.43085808828125Q0.85271109375,3.47915798828125,0.87155609375,3.52465498828125Q0.89040209375,3.57015198828125,0.91776109375,3.61109798828125Q0.94512109375,3.65204398828125,0.97994309375,3.68686598828125Q1.01476509375,3.72168798828125,1.05571109375,3.74904798828125Q1.09665709375,3.77640698828125,1.1421540937499999,3.7952529882812502Q1.18765109375,3.81409798828125,1.23595099375,3.82370598828125Q1.28425039375,3.83331298828125,1.33349609375,3.83331298828125Z"
        fill-rule="evenodd" fill-opacity="1" />
    </g>
    <g>
      <path
        d="M5.33349609375,3.83331298828125L10.66682609375,3.83331298828125Q10.79261609375,3.83331298828125,10.903436093749999,3.77379298828125Q10.94681609375,3.75048298828125,10.98481609375,3.71916298828125Q11.02281609375,3.68784298828125,11.05398609375,3.64971298828125Q11.08514609375,3.61158298828125,11.10827609375,3.56810298828125Q11.13139609375,3.52462298828125,11.145596093750001,3.47747298828125Q11.15979609375,3.43032298828125,11.164516093749999,3.38130298828125Q11.16924609375,3.33228298828125,11.16431609375,3.28328298828125Q11.15939609375,3.23428298828125,11.144996093749999,3.18719298828125Q11.13060609375,3.14009298828125,11.107306093750001,3.09671298828125L10.03300609375,1.09671098828125Q10.00093609375,1.03700198828125,9.95412609375,0.9879859882812501Q9.907316093750001,0.93896998828125,9.849136093750001,0.90418498828125Q9.79096609375,0.86939998828125,9.725636093750001,0.85135698828125Q9.66030609375,0.83331298828125,9.59252609375,0.83331298828125L6.42982609375,0.83331298828125Q6.36259609375,0.83331298828125,6.29774509375,0.8510749882812501Q6.23289809375,0.86883598828125,6.17504609375,0.9030969882812501Q6.11719409375,0.9373589882812501,6.0704480937500005,0.98568498828125Q6.02370209375,1.03401198828125,5.9913820937499995,1.09297098828125L4.89504909375,3.0929729882812502Q4.83349609375,3.20526298828125,4.83349609375,3.33331298828125Q4.83349609375,3.38256298828125,4.84310309375,3.43085298828125Q4.85271109375,3.47915298828125,4.87155609375,3.52465298828125Q4.89040209375,3.57015298828125,4.91776109375,3.61109298828125Q4.94512109375,3.65204298828125,4.97994309375,3.68686298828125Q5.01476509375,3.72169298828125,5.05571109375,3.74904298828125Q5.09665709375,3.77640298828125,5.14215409375,3.79525298828125Q5.18765109375,3.81409298828125,5.23595099375,3.82370298828125Q5.28425039375,3.83331298828125,5.33349609375,3.83331298828125ZM9.83068609375,2.83331298828125L6.17777409375,2.83331298828125L6.72593609375,1.83331298828125L9.29353609375,1.83331298828125L9.83068609375,2.83331298828125Z"
        fill-rule="evenodd" fill-opacity="1" />
    </g>
  </g>
</svg>