<svg xmlns="http://www.w3.org/2000/svg" xmlns:xlink="http://www.w3.org/1999/xlink" version="1.1" width="16" height="16"
  viewBox="0 0 16 16">
  <g>
    <g></g>
    <g>
      <path
        d="M6.00001,13.49999228515625C6.00001,13.49999228515625,6.00001,13.99999228515625,6.00001,13.99999228515625C6.13261,13.99999228515625,6.25979,13.94729228515625,6.35356,13.85359228515625C6.35356,13.85359228515625,6.00001,13.49999228515625,6.00001,13.49999228515625C6.00001,13.49999228515625,6.00001,13.49999228515625,6.00001,13.49999228515625ZM2.500003,10.20624228515625C2.500003,10.20624228515625,3.00001,10.20624228515625,3.00001,10.20624228515625C3.00001,10.20624228515625,3,10.20449228515625,3,10.20449228515625C3,10.20449228515625,2.500003,10.20624228515625,2.500003,10.20624228515625C2.500003,10.20624228515625,2.500003,10.20624228515625,2.500003,10.20624228515625ZM2.6437530000000002,9.85624228515625C2.6437530000000002,9.85624228515625,2.290199,9.50269228515625,2.290199,9.50269228515625C2.290199,9.50269228515625,2.289326,9.50359228515625,2.289326,9.50359228515625C2.289326,9.50359228515625,2.6437530000000002,9.85624228515625,2.6437530000000002,9.85624228515625C2.6437530000000002,9.85624228515625,2.6437530000000002,9.85624228515625,2.6437530000000002,9.85624228515625ZM10.14375,2.35625628515625C10.14375,2.35625628515625,10.4973,2.7098222851562497,10.4973,2.7098222851562497C10.4973,2.7098222851562497,10.5,2.70709228515625,10.5,2.70709228515625C10.5,2.70709228515625,10.14375,2.35625628515625,10.14375,2.35625628515625C10.14375,2.35625628515625,10.14375,2.35625628515625,10.14375,2.35625628515625ZM10.5,2.20709228515625C10.5,2.20709228515625,10.5,2.70709228515625,10.5,2.70709228515625C10.5,2.70709228515625,10.5,2.20709228515625,10.5,2.20709228515625C10.5,2.20709228515625,10.5,2.20709228515625,10.5,2.20709228515625ZM10.85625,2.35625628515625C10.85625,2.35625628515625,10.5,2.70710228515625,10.5,2.70710228515625C10.5,2.70710228515625,10.5027,2.70980228515625,10.5027,2.70980228515625C10.5027,2.70980228515625,10.85625,2.35625628515625,10.85625,2.35625628515625C10.85625,2.35625628515625,10.85625,2.35625628515625,10.85625,2.35625628515625ZM13.6438,5.1437622851562494C13.6438,5.1437622851562494,13.2902,5.49732228515625,13.2902,5.49732228515625C13.2902,5.49732228515625,13.2929,5.5000122851562505,13.2929,5.5000122851562505C13.2929,5.5000122851562505,13.6438,5.1437622851562494,13.6438,5.1437622851562494C13.6438,5.1437622851562494,13.6438,5.1437622851562494,13.6438,5.1437622851562494ZM13.6438,5.85626228515625C13.6438,5.85626228515625,13.2929,5.50000228515625,13.2929,5.50000228515625C13.2929,5.50000228515625,13.2902,5.50270228515625,13.2902,5.50270228515625C13.2902,5.50270228515625,13.6438,5.85626228515625,13.6438,5.85626228515625C13.6438,5.85626228515625,13.6438,5.85626228515625,13.6438,5.85626228515625ZM6.00001,12.99999228515625C6.00001,12.99999228515625,3.00001,12.99999228515625,3.00001,12.99999228515625C3.00001,12.99999228515625,3.00001,13.99999228515625,3.00001,13.99999228515625C3.00001,13.99999228515625,6.00001,13.99999228515625,6.00001,13.99999228515625C6.00001,13.99999228515625,6.00001,12.99999228515625,6.00001,12.99999228515625C6.00001,12.99999228515625,6.00001,12.99999228515625,6.00001,12.99999228515625ZM3.00001,12.99999228515625C3.00001,12.99999228515625,3.00001,12.99999228515625,3.00001,12.99999228515625C3.00001,12.99999228515625,2.292897,13.70709228515625,2.292897,13.70709228515625C2.480433,13.89459228515625,2.734788,13.99999228515625,3.00001,13.99999228515625C3.00001,13.99999228515625,3.00001,12.99999228515625,3.00001,12.99999228515625C3.00001,12.99999228515625,3.00001,12.99999228515625,3.00001,12.99999228515625ZM3.00001,12.99999228515625C3.00001,12.99999228515625,3.00001,12.99999228515625,3.00001,12.99999228515625C3.00001,12.99999228515625,2.0000030521,12.99999228515625,2.0000030521,12.99999228515625C2.0000030521,13.26529228515625,2.10536,13.51959228515625,2.292897,13.70709228515625C2.292897,13.70709228515625,3.00001,12.99999228515625,3.00001,12.99999228515625C3.00001,12.99999228515625,3.00001,12.99999228515625,3.00001,12.99999228515625ZM3.00001,12.99999228515625C3.00001,12.99999228515625,3.00001,10.20624228515625,3.00001,10.20624228515625C3.00001,10.20624228515625,2.0000030521,10.20624228515625,2.0000030521,10.20624228515625C2.0000030521,10.20624228515625,2.0000030521,12.99999228515625,2.0000030521,12.99999228515625C2.0000030521,12.99999228515625,3.00001,12.99999228515625,3.00001,12.99999228515625C3.00001,12.99999228515625,3.00001,12.99999228515625,3.00001,12.99999228515625ZM3,10.20449228515625C3.00001,10.20534228515625,2.999844,10.20614228515625,2.999532,10.20689228515625C2.999532,10.20689228515625,2.0745116,9.82699228515625,2.0745116,9.82699228515625C2.0248666,9.94784228515625,1.999550052,10.07734228515625,2.0000060521,10.20799228515625C2.0000060521,10.20799228515625,3,10.20449228515625,3,10.20449228515625C3,10.20449228515625,3,10.20449228515625,3,10.20449228515625ZM2.999532,10.20689228515625C2.999219,10.20764228515625,2.99876,10.20834228515625,2.9981809999999998,10.20894228515625C2.9981809999999998,10.20894228515625,2.289326,9.50359228515625,2.289326,9.50359228515625C2.197155,9.59619228515625,2.124157,9.706092285156249,2.0745116,9.82699228515625C2.0745116,9.82699228515625,2.999532,10.20689228515625,2.999532,10.20689228515625C2.999532,10.20689228515625,2.999532,10.20689228515625,2.999532,10.20689228515625ZM2.997307,10.20979228515625C2.997307,10.20979228515625,10.4973,2.70980228515625,10.4973,2.70980228515625C10.4973,2.70980228515625,9.790199999999999,2.00270228515625,9.790199999999999,2.00270228515625C9.790199999999999,2.00270228515625,2.2902,9.50269228515625,2.2902,9.50269228515625C2.2902,9.50269228515625,2.997307,10.20979228515625,2.997307,10.20979228515625C2.997307,10.20979228515625,2.997307,10.20979228515625,2.997307,10.20979228515625ZM10.5,2.70709228515625C10.5,2.70709228515625,10.5,2.70709228515625,10.5,2.70709228515625C10.5,2.70709228515625,10.1138,1.78468478515625,10.1138,1.78468478515625C9.99145,1.83590028515625,9.88055,1.91093528515625,9.7875,2.00542028515625C9.7875,2.00542028515625,10.5,2.70709228515625,10.5,2.70709228515625C10.5,2.70709228515625,10.5,2.70709228515625,10.5,2.70709228515625ZM10.5,2.70709228515625C10.5,2.70709228515625,10.5,2.70709228515625,10.5,2.70709228515625C10.5,2.70709228515625,10.5,1.70709228515625,10.5,1.70709228515625C10.3674,1.70709228515625,10.2361,1.73346828515625,10.1138,1.78468478515625C10.1138,1.78468478515625,10.5,2.70709228515625,10.5,2.70709228515625C10.5,2.70709228515625,10.5,2.70709228515625,10.5,2.70709228515625ZM10.5,2.70709228515625C10.5,2.70709228515625,10.5,2.70709228515625,10.5,2.70709228515625C10.5,2.70709228515625,10.8862,1.78468478515625,10.8862,1.78468478515625C10.7639,1.73346828515625,10.6326,1.70709228515625,10.5,1.70709228515625C10.5,1.70709228515625,10.5,2.70709228515625,10.5,2.70709228515625C10.5,2.70709228515625,10.5,2.70709228515625,10.5,2.70709228515625ZM10.5,2.70709228515625C10.5,2.70709228515625,10.5,2.70709228515625,10.5,2.70709228515625C10.5,2.70709228515625,11.2125,2.00542028515625,11.2125,2.00542028515625C11.11945,1.91093528515625,11.00855,1.83590028515625,10.8862,1.78468478515625C10.8862,1.78468478515625,10.5,2.70709228515625,10.5,2.70709228515625C10.5,2.70709228515625,10.5,2.70709228515625,10.5,2.70709228515625ZM10.5027,2.70980228515625C10.5027,2.70980228515625,13.2902,5.49731228515625,13.2902,5.49731228515625C13.2902,5.49731228515625,13.9973,4.79020228515625,13.9973,4.79020228515625C13.9973,4.79020228515625,11.2098,2.00270228515625,11.2098,2.00270228515625C11.2098,2.00270228515625,10.5027,2.70980228515625,10.5027,2.70980228515625C10.5027,2.70980228515625,10.5027,2.70980228515625,10.5027,2.70980228515625ZM13.2929,5.5000122851562505C13.2929,5.5000122851562505,13.2929,5.5000122851562505,13.2929,5.5000122851562505C13.2929,5.5000122851562505,14.2153,5.11378228515625,14.2153,5.11378228515625C14.1641,4.99146228515625,14.0891,4.88056228515625,13.9946,4.78751228515625C13.9946,4.78751228515625,13.2929,5.5000122851562505,13.2929,5.5000122851562505C13.2929,5.5000122851562505,13.2929,5.5000122851562505,13.2929,5.5000122851562505ZM13.2929,5.5000122851562505C13.2929,5.5000122851562505,13.2929,5.5000122851562505,13.2929,5.5000122851562505C13.2929,5.5000122851562505,14.2929,5.5000122851562505,14.2929,5.5000122851562505C14.2929,5.367392285156249,14.2666,5.23611228515625,14.2153,5.11378228515625C14.2153,5.11378228515625,13.2929,5.5000122851562505,13.2929,5.5000122851562505C13.2929,5.5000122851562505,13.2929,5.5000122851562505,13.2929,5.5000122851562505ZM13.2929,5.5000122851562505C13.2929,5.5000122851562505,13.2929,5.5000122851562505,13.2929,5.5000122851562505C13.2929,5.5000122851562505,14.2153,5.88622228515625,14.2153,5.88622228515625C14.2666,5.76390228515625,14.2929,5.632612285156251,14.2929,5.5000122851562505C14.2929,5.5000122851562505,13.2929,5.5000122851562505,13.2929,5.5000122851562505C13.2929,5.5000122851562505,13.2929,5.5000122851562505,13.2929,5.5000122851562505ZM13.2929,5.5000122851562505C13.2929,5.5000122851562505,13.2929,5.5000122851562505,13.2929,5.5000122851562505C13.2929,5.5000122851562505,13.9946,6.21250228515625,13.9946,6.21250228515625C14.0891,6.11945228515625,14.1641,6.00854228515625,14.2153,5.88622228515625C14.2153,5.88622228515625,13.2929,5.5000122851562505,13.2929,5.5000122851562505C13.2929,5.5000122851562505,13.2929,5.5000122851562505,13.2929,5.5000122851562505ZM13.2902,5.50270228515625C13.2902,5.50270228515625,5.64645,13.14649228515625,5.64645,13.14649228515625C5.64645,13.14649228515625,6.35356,13.85359228515625,6.35356,13.85359228515625C6.35356,13.85359228515625,13.9973,6.20981228515625,13.9973,6.20981228515625C13.9973,6.20981228515625,13.2902,5.50270228515625,13.2902,5.50270228515625C13.2902,5.50270228515625,13.2902,5.50270228515625,13.2902,5.50270228515625Z"
        fill-opacity="1" />
    </g>
    <g>
      <path
        d="M13.5,14C13.77615,14,14,13.776142,14,13.5C14,13.223858,13.77615,13,13.5,13C13.5,13,13.5,14,13.5,14C13.5,14,13.5,14,13.5,14ZM6,13C5.723858,13,5.5,13.223858,5.5,13.5C5.5,13.776142,5.723858,14,6,14C6,14,6,13,6,13C6,13,6,13,6,13ZM13.5,13C13.5,13,6,13,6,13C6,13,6,14,6,14C6,14,13.5,14,13.5,14C13.5,14,13.5,13,13.5,13C13.5,13,13.5,13,13.5,13Z"
        fill-opacity="1" />
    </g>
    <g>
      <path
        d="M8.853553,3.646446C8.658291,3.4511846,8.341708,3.4511846,8.146446,3.646446C7.9511846,3.841708,7.9511846,4.158291,8.146446,4.353553C8.146446,4.353553,8.853553,3.646446,8.853553,3.646446C8.853553,3.646446,8.853553,3.646446,8.853553,3.646446ZM11.64644,7.85355C11.841709999999999,8.04881,12.158290000000001,8.04881,12.35355,7.85355C12.54881,7.65829,12.54881,7.34171,12.35355,7.14644C12.35355,7.14644,11.64644,7.85355,11.64644,7.85355C11.64644,7.85355,11.64644,7.85355,11.64644,7.85355ZM8.146446,4.353553C8.146446,4.353553,11.64644,7.85355,11.64644,7.85355C11.64644,7.85355,12.35355,7.14644,12.35355,7.14644C12.35355,7.14644,8.853553,3.646446,8.853553,3.646446C8.853553,3.646446,8.146446,4.353553,8.146446,4.353553C8.146446,4.353553,8.146446,4.353553,8.146446,4.353553Z"
        fill-opacity="1" />
    </g>
  </g>
</svg>