<?xml version="1.0" standalone="no"?><!DOCTYPE svg PUBLIC "-//W3C//DTD SVG 1.1//EN" "http://www.w3.org/Graphics/SVG/1.1/DTD/svg11.dtd"><svg class="icon" width="30px" height="30.00px" viewBox="0 0 1024 1024" version="1.1" xmlns="http://www.w3.org/2000/svg"><path d="M658.68 63.95H269.36c-78.06 0-141.33 63.28-141.33 141.33v612.95c0 78.06 63.28 141.33 141.33 141.33h485.49c78.06 0 141.33-63.28 141.33-141.33V301.44c0-31.83-12.64-62.35-35.15-84.85l-117.5-117.5a120.008 120.008 0 0 0-84.85-35.14z" fill="#53D39C" /><path d="M655.49 388.82c-9.37-9.37-24.57-9.37-33.94 0L510.8 499.57 400.05 388.82c-9.37-9.37-24.57-9.37-33.94 0-9.37 9.37-9.37 24.57 0 33.94l110.75 110.75L366.1 644.26c-9.37 9.37-9.37 24.57 0 33.94 4.69 4.69 10.83 7.03 16.97 7.03s12.28-2.34 16.97-7.03L510.8 567.45 621.54 678.2c4.69 4.69 10.83 7.03 16.97 7.03s12.28-2.34 16.97-7.03c9.37-9.37 9.37-24.57 0-33.94L544.74 533.51l110.75-110.75c9.37-9.37 9.37-24.57 0-33.94zM861.03 216.59l-117.5-117.5a120.001 120.001 0 0 0-61.75-32.9v131.88c0 41.87 33.94 75.81 75.81 75.81h135.37a120.058 120.058 0 0 0-31.93-57.29z" fill="#25BF79" /><path d="M544.74 521.51l110.75-110.75c9.37-9.37 9.37-24.57 0-33.94-9.37-9.37-24.57-9.37-33.94 0L510.8 487.57 400.05 376.82c-9.37-9.37-24.57-9.37-33.94 0-9.37 9.37-9.37 24.57 0 33.94l110.75 110.75L366.1 632.26c-9.37 9.37-9.37 24.57 0 33.94 4.69 4.69 10.83 7.03 16.97 7.03s12.28-2.34 16.97-7.03L510.8 555.45 621.54 666.2c4.69 4.69 10.83 7.03 16.97 7.03s12.28-2.34 16.97-7.03c9.37-9.37 9.37-24.57 0-33.94L544.74 521.51z" fill="#FFFFFF" /></svg>