<?xml version="1.0" standalone="no"?><!DOCTYPE svg PUBLIC "-//W3C//DTD SVG 1.1//EN" "http://www.w3.org/Graphics/SVG/1.1/DTD/svg11.dtd"><svg class="icon" width="30px" height="30.00px" viewBox="0 0 1024 1024" version="1.1" xmlns="http://www.w3.org/2000/svg"><path d="M788.14 928.23h-550c-77.32 0-140-62.68-140-140v-550c0-77.32 62.68-140 140-140h550c77.32 0 140 62.68 140 140v550c0 77.32-62.68 140-140 140z" fill="#FFC757" /><path d="M770.19 644.92l-67.56-117.01c-15.4-26.68-53.91-26.68-69.31 0l-64.01 110.88L450.3 432.65c-15.4-26.67-53.89-26.67-69.29 0L258.45 644.94c-15.4 26.67 3.85 60.01 34.65 60.01h442.44c30.8-0.01 50.05-33.35 34.65-60.03z" fill="#EF9F2B" /><path d="M595.103921 388.209544a55.27 55.27 0 1 0 100.661393-45.676862 55.27 55.27 0 1 0-100.661393 45.676862Z" fill="#EF9F2B" /><path d="M770.19 632.92l-67.56-117.01c-15.4-26.68-53.91-26.68-69.31 0l-64.01 110.88L450.3 420.65c-15.4-26.67-53.89-26.67-69.29 0L258.45 632.94c-15.4 26.67 3.85 60.01 34.65 60.01h442.44c30.8-0.01 50.05-33.35 34.65-60.03z" fill="#FFFFFF" /><path d="M595.104335 376.209454a55.27 55.27 0 1 0 100.661392-45.676862 55.27 55.27 0 1 0-100.661392 45.676862Z" fill="#FFFFFF" /></svg>