<?xml version="1.0" standalone="no"?><!DOCTYPE svg PUBLIC "-//W3C//DTD SVG 1.1//EN" "http://www.w3.org/Graphics/SVG/1.1/DTD/svg11.dtd"><svg class="icon" width="30px" height="30.00px" viewBox="0 0 1024 1024" version="1.1" xmlns="http://www.w3.org/2000/svg"><path d="M658.78 64.39H269.46c-78.06 0-141.33 63.28-141.33 141.33v612.95c0 78.06 63.28 141.33 141.33 141.33h485.49c78.06 0 141.33-63.28 141.33-141.33V301.88c0-31.83-12.64-62.35-35.15-84.85l-117.5-117.5a120.008 120.008 0 0 0-84.85-35.14z" fill="#53B7F4" /><path d="M647.85 360.65c-13.25 0-24 10.75-24 24v226.26l-94.35-93.29c-9.33-9.22-24.34-9.25-33.69-0.05l-95.26 93.6V383.99c0-13.25-10.75-24-24-24s-24 10.75-24 24V668.4c0 9.67 5.8 18.39 14.72 22.13a24.002 24.002 0 0 0 26.1-5.01L512.58 568.4l118.4 117.07a23.993 23.993 0 0 0 16.88 6.93c3.11 0 6.25-0.61 9.24-1.85a24 24 0 0 0 14.75-22.15V384.65c0-13.25-10.74-24-24-24zM861.13 217.03l-117.5-117.5a120.001 120.001 0 0 0-61.75-32.9v131.88c0 41.87 33.94 75.81 75.81 75.81h135.37a119.975 119.975 0 0 0-31.93-57.29z" fill="#29A3D3" /><path d="M647.86 680.4c-6.2 0-12.3-2.4-16.88-6.93L512.58 556.4 393.37 673.52a23.99 23.99 0 0 1-26.1 5.01 23.992 23.992 0 0 1-14.72-22.13V371.99c0-13.25 10.75-24 24-24s24 10.75 24 24v227.19l95.26-93.6c9.36-9.19 24.37-9.17 33.69 0.05l94.35 93.29V372.65c0-13.25 10.75-24 24-24s24 10.75 24 24V656.4c0 9.68-5.82 18.42-14.75 22.15a24.112 24.112 0 0 1-9.24 1.85z" fill="#FFFFFF" /></svg>