<?xml version="1.0" standalone="no"?><!DOCTYPE svg PUBLIC "-//W3C//DTD SVG 1.1//EN" "http://www.w3.org/Graphics/SVG/1.1/DTD/svg11.dtd"><svg class="icon" width="30px" height="30.00px" viewBox="0 0 1024 1024" version="1.1" xmlns="http://www.w3.org/2000/svg"><path d="M658.58 63.94H269.26c-78.06 0-141.33 63.28-141.33 141.33v612.95c0 78.06 63.28 141.33 141.33 141.33h485.49c78.06 0 141.33-63.28 141.33-141.33V301.44c0-31.83-12.64-62.35-35.15-84.85l-117.5-117.5a120.017 120.017 0 0 0-84.85-35.15z" fill="#F98950" /><path d="M860.93 216.59l-117.5-117.5a120.001 120.001 0 0 0-61.75-32.9v131.88c0 41.87 33.94 75.81 75.81 75.81h135.37a119.93 119.93 0 0 0-31.93-57.29zM556.02 348.38H380.37c-13.25 0-24 10.75-24 24v302.74c0 13.25 10.75 24 24 24s24-10.75 24-24V595.6h151.65c68.16 0 123.61-55.45 123.61-123.61s-55.45-123.61-123.61-123.61z m0 199.22H404.37V396.38h151.65c41.69 0 75.61 33.92 75.61 75.61s-33.92 75.61-75.61 75.61z" fill="#F26C38" /><path d="M556.02 336.38H380.37c-13.25 0-24 10.75-24 24v302.74c0 13.25 10.75 24 24 24s24-10.75 24-24V583.6h151.65c68.16 0 123.61-55.45 123.61-123.61s-55.45-123.61-123.61-123.61z m0 199.22H404.37V384.38h151.65c41.69 0 75.61 33.92 75.61 75.61s-33.92 75.61-75.61 75.61z" fill="#FFFFFF" /></svg>