<?xml version="1.0" standalone="no"?><!DOCTYPE svg PUBLIC "-//W3C//DTD SVG 1.1//EN" "http://www.w3.org/Graphics/SVG/1.1/DTD/svg11.dtd"><svg class="icon" width="30px" height="30.00px" viewBox="0 0 1024 1024" version="1.1" xmlns="http://www.w3.org/2000/svg"><path d="M65.4 754.7V269.3c0-78.1 63.3-141.3 141.3-141.3h612.9c78.1 0 141.3 63.3 141.3 141.3v485.5c0 78.1-63.3 141.3-141.3 141.3H206.7c-78.1 0-141.3-63.3-141.3-141.4z" fill="#4FD397" /><path d="M814 319.5c-8-10.6-23-12.7-33.6-4.7L512.1 516.7 245.9 316.9c-10.6-8-25.6-5.8-33.6 4.8s-5.8 25.6 4.8 33.6l280.6 210.6c4.3 3.2 9.3 4.8 14.4 4.8s10.2-1.6 14.4-4.8l282.7-212.7c10.6-8 12.8-23.1 4.8-33.7z" fill="#19BC6E" /><path d="M814 307.5c-8-10.6-23-12.7-33.6-4.7L512.1 504.7 245.9 304.9c-10.6-8-25.6-5.8-33.6 4.8s-5.8 25.6 4.8 33.6l280.6 210.6c4.3 3.2 9.3 4.8 14.4 4.8s10.2-1.6 14.4-4.8l282.7-212.7c10.6-8 12.8-23.1 4.8-33.7z" fill="#FFFFFF" /></svg>