<?xml version="1.0" standalone="no"?><!DOCTYPE svg PUBLIC "-//W3C//DTD SVG 1.1//EN" "http://www.w3.org/Graphics/SVG/1.1/DTD/svg11.dtd"><svg t="1722932435060" class="icon" viewBox="0 0 1024 1024" version="1.1" xmlns="http://www.w3.org/2000/svg" p-id="5174" width="20" height="20" xmlns:xlink="http://www.w3.org/1999/xlink"><path d="M145.066 128.001v768q0 13.872 5.375 26.58 5.184 12.256 14.62 21.692t21.691 14.62q12.708 5.374 26.58 5.374h597.334q13.872 0 26.58-5.375 12.256-5.183 21.692-14.619t14.62-21.692q5.375-12.708 5.375-26.58V298.667a25.599 25.599 0 0 0-6.572-17.125l-192-213.333a25.6 25.6 0 0 0-19.028-8.475h-448q-13.873 0-26.581 5.376-12.256 5.183-21.692 14.62-9.435 9.435-14.62 21.69-5.374 12.71-5.374 26.581z m52.53 774.635q-1.33-3.146-1.33-6.635v-768q0-3.49 1.33-6.635 1.294-3.058 3.668-5.433 2.375-2.374 5.433-3.668 3.146-1.33 6.635-1.33h436.599L827.733 308.49v587.51q0 3.49-1.331 6.635-1.293 3.058-3.668 5.433-2.374 2.374-5.432 3.668-3.146 1.33-6.636 1.33H213.332q-3.489 0-6.635-1.33-3.058-1.294-5.433-3.668-2.374-2.375-3.668-5.433z" fill="#d81e06" p-id="5175"></path><path d="M621.88 743.418l0.018 0.018a25.6 25.6 0 1 0 36.204-36.204l-256-256a25.6 25.6 0 1 0-36.204 36.204L621.88 743.418z" fill="#d81e06" p-id="5176"></path><path d="M365.91 707.22l-0.012 0.012a25.6 25.6 0 1 0 36.204 36.204l256-256a25.6 25.6 0 1 0-36.204-36.204l-0.012 0.013L365.91 707.22zM640 324.267h213.333c14.139 0 25.6-11.46 25.6-25.6 0-14.138-11.461-25.6-25.6-25.6H665.6V85.334c0-14.138-11.461-25.6-25.6-25.6-14.138 0-25.6 11.462-25.6 25.6v213.333c0 14.14 11.462 25.6 25.6 25.6z" fill="#d81e06" p-id="5177"></path></svg>