<?xml version="1.0" standalone="no"?><!DOCTYPE svg PUBLIC "-//W3C//DTD SVG 1.1//EN" "http://www.w3.org/Graphics/SVG/1.1/DTD/svg11.dtd"><svg t="1718181632463" class="icon" viewBox="0 0 1024 1024" version="1.1" xmlns="http://www.w3.org/2000/svg" p-id="4467" xmlns:xlink="http://www.w3.org/1999/xlink" width="256" height="256"><path d="M700.709 866.962c12.873 27.795 33.426 51.2 58.88 67.877l-12.215 7.168A473.234 473.234 0 0 1 512 1004.25a473.234 473.234 0 0 1-247.223-69.266c25.454-16.603 46.08-40.009 59.1-67.73 55.588 31.012 119.808 48.713 188.123 48.713 68.535 0 132.827-17.774 188.709-49.006zM172.398 694.638a101.888 101.888 0 1 1 0 203.776 101.888 101.888 0 0 1 0-203.776z m679.204 0a101.888 101.888 0 1 1 0 203.776 101.888 101.888 0 0 1 0-203.776zM352.475 80.823a163.547 163.547 0 0 0 3.658 93.623 386.926 386.926 0 0 0-216.064 461.897 163.84 163.84 0 0 0-79.287 42.276A475.648 475.648 0 0 1 352.549 80.823z m319.05 0a475.794 475.794 0 0 1 291.913 597.504 163.62 163.62 0 0 0-79.36-42.277 387.218 387.218 0 0 0-216.284-461.677 164.864 164.864 0 0 0 3.804-93.55zM512 11.337a101.888 101.888 0 1 1 0 203.776 101.888 101.888 0 0 1 0-203.776z" p-id="4468"></path></svg>