<svg xmlns="http://www.w3.org/2000/svg" xmlns:xlink="http://www.w3.org/1999/xlink" version="1.1" width="16" height="16" viewBox="0 0 16 16"><defs><clipPath id="master_svg0_7_19121"><rect x="0" y="0" width="16" height="16" rx="0"/></clipPath></defs><g clip-path="url(#master_svg0_7_19121)"><g><rect x="0" y="0" width="16" height="16" rx="0"  fill-opacity="0.009999999776482582"/></g><g><path d="M2.932321953125,2.9324440234375Q0.833251953125,5.0315040234375,0.833251953125,8.0000440234375Q0.833251953125,10.9685740234375,2.932321953125,13.0676740234375Q5.031381953125,15.1666740234375,7.999921953125,15.1666740234375Q10.968451953125,15.1666740234375,13.067551953125,13.0676740234375Q15.166551953125,10.9685740234375,15.166551953125,8.0000440234375Q15.166551953125,5.0315040234375,13.067551953125,2.9324440234375Q10.968451953125,0.8333740234375,7.999921953125,0.8333740234375Q5.031391953125,0.8333740234375,2.932321953125,2.9324440234375ZM3.639421953125,12.3605740234375Q1.833251953125,10.5543540234375,1.833251953125,8.0000440234375Q1.833250953125,5.4457240234375,3.639421953125,3.6395440234375Q5.445601953125,1.8333740234375,7.999921953125,1.8333740234375Q10.554231953125,1.8333740234375,12.360451953125,3.6395440234375Q14.166551953125,5.4457240234375,14.166551953125,8.0000440234375Q14.166551953125,10.5543640234375,12.360451953125,12.3605740234375Q10.554231953125,14.1666740234375,7.999921953125,14.1666740234375Q5.445601953125,14.1666740234375,3.639421953125,12.3605740234375Z" fill-rule="evenodd"  fill-opacity="1"/></g><g><path d="M5.353613,6.6465060000000005L5.353553,6.646447Q5.283227,6.57612,5.191342,6.53806Q5.0994562,6.5,5,6.5Q4.9005438,6.5,4.808658,6.53806Q4.716773,6.57612,4.646447,6.646447Q4.57612,6.716773,4.53806,6.808658Q4.5,6.9005438,4.5,7Q4.5,7.0994562,4.53806,7.191342Q4.57612,7.283227,4.646447,7.353553L4.6465060000000005,7.353613L7.64645,10.35355Q7.71677,10.42388,7.80866,10.46194Q7.9005399999999995,10.5,8,10.5Q8.09946,10.5,8.19134,10.46194Q8.28323,10.42388,8.35355,10.35355L11.35337,7.353741L11.35355,7.353553Q11.42388,7.283227,11.46194,7.191342Q11.5,7.0994562,11.5,7Q11.5,6.9005438,11.46194,6.808658Q11.42388,6.716773,11.35355,6.646447Q11.28323,6.57612,11.19134,6.53806Q11.09946,6.5,11,6.5Q10.90054,6.5,10.80866,6.53806Q10.71677,6.57612,10.64645,6.646447L10.64626,6.646634L8,9.29289L5.353613,6.6465060000000005Z" fill-rule="evenodd"  fill-opacity="1"/></g></g></svg>