<svg xmlns="http://www.w3.org/2000/svg" xmlns:xlink="http://www.w3.org/1999/xlink" version="1.1" width="16" height="16"
  viewBox="0 0 16 16">
  <defs>
    <clipPath id="master_svg0_544_22608">
      <rect x="0" y="0" width="16" height="16" rx="0" />
    </clipPath>
  </defs>
  <g clip-path="url(#master_svg0_544_22608)">
    <g>
      <path
        d="M3.33317090625,15.16679609375L7.33317390625,15.16679609375Q7.38241390625,15.16679609375,7.43071390625,15.15719609375Q7.47901390625,15.14759609375,7.52451390625,15.12879609375Q7.57001390625,15.10989609375,7.61095390625,15.08259609375Q7.65190390625,15.05519609375,7.68672390625,15.02039609375Q7.72154390625,14.98559609375,7.74890390625,14.94459609375Q7.77626390625,14.90369609375,7.79511390625,14.85819609375Q7.81395390625,14.81269609375,7.82356390625,14.76439609375Q7.83317390625,14.71609609375,7.83317390625,14.66679609375Q7.83317390625,14.61759609375,7.82356390625,14.56929609375Q7.81395390625,14.52099609375,7.79511390625,14.47549609375Q7.77626390625,14.42999609375,7.74890390625,14.38899609375Q7.72154390625,14.34809609375,7.68672390625,14.31329609375Q7.65190390625,14.27849609375,7.61095390625,14.25109609375Q7.57001390625,14.22369609375,7.52451390625,14.20489609375Q7.47901390625,14.18599609375,7.43071390625,14.17639609375Q7.38241390625,14.16679609375,7.33317390625,14.16679609375L3.33317090625,14.16679609375Q3.2641319062500003,14.16679609375,3.21531790625,14.11799609375Q3.16650390625,14.06919609375,3.16650390625,14.00019609375L3.16650390625,2.00016309375Q3.16650390625,1.83349609375,3.33317090625,1.83349609375L10.11049390625,1.83349609375L12.83320390625,4.85869609375L12.83320390625,7.66682609375Q12.83320390625,7.71607609375,12.84280390625,7.76437609375Q12.85240390625,7.81267609375,12.87120390625,7.85816609375Q12.89010390625,7.90366609375,12.91740390625,7.94461609375Q12.94480390625,7.98555609375,12.97960390625,8.02038609375Q13.01440390625,8.05520609375,13.05540390625,8.08256609375Q13.09630390625,8.109926093750001,13.14180390625,8.12876609375Q13.18730390625,8.147616093749999,13.23560390625,8.157226093750001Q13.28390390625,8.16682609375,13.33320390625,8.16682609375Q13.38240390625,8.16682609375,13.43070390625,8.157226093750001Q13.47900390625,8.147616093749999,13.52450390625,8.12876609375Q13.57000390625,8.109926093750001,13.61100390625,8.08256609375Q13.65190390625,8.05520609375,13.68670390625,8.02038609375Q13.72150390625,7.98555609375,13.74890390625,7.94461609375Q13.77630390625,7.90366609375,13.79510390625,7.85816609375Q13.81400390625,7.81267609375,13.82360390625,7.76437609375Q13.83320390625,7.71607609375,13.83320390625,7.66682609375L13.83320390625,4.66682609375Q13.83320390625,4.57418609375,13.80000390625,4.4876960937499994Q13.76680390625,4.40120609375,13.70480390625,4.33234609375L10.70481390625,0.99901409375Q10.63370390625,0.91999609375,10.536593906250001,0.87674609375Q10.43947390625,0.83349609375,10.33317390625,0.83349609375L3.33317090625,0.83349609375Q2.84992090625,0.83349609375,2.50821290625,1.17520509375Q2.16650390625,1.51691309375,2.16650390625,2.00016309375L2.16650390625,14.00019609375Q2.16650390625,14.48339609375,2.50821390625,14.82509609375Q2.84992190625,15.16679609375,3.33317090625,15.16679609375Z"
        fill-opacity="1" />
    </g>
    <g>
      <path
        d="M8.83349609375,13.33333L8.83349609375,14.66667Q8.83349609375,14.715910000000001,8.84310309375,14.76421Q8.852711093749999,14.81251,8.87155609375,14.85801Q8.89040209375,14.90351,8.91776109375,14.94445Q8.94512109375,14.9854,8.97994309375,15.02022Q9.01476509375,15.05504,9.05571109375,15.0824Q9.09665709375,15.10976,9.14215409375,15.12861Q9.18765109375,15.14745,9.23595099375,15.157060000000001Q9.28425039375,15.16667,9.33349609375,15.16667L10.66682609375,15.16667Q10.76628609375,15.16667,10.85817609375,15.12861Q10.95005609375,15.09055,11.02038609375,15.02022L14.35371609375,11.68689Q14.38853609375,11.65206,14.41589609375,11.61112Q14.44325609375,11.570170000000001,14.46210609375,11.52468Q14.48094609375,11.47918,14.490556093750001,11.43088Q14.50016609375,11.38258,14.50016609375,11.33333Q14.50016609375,11.284089999999999,14.490556093750001,11.23579Q14.48094609375,11.18749,14.46210609375,11.14199Q14.44325609375,11.09649,14.41589609375,11.05555Q14.38853609375,11.0146,14.35371609375,10.97978L13.02038609375,9.646447Q12.95005609375,9.57612,12.85817609375,9.53806Q12.76628609375,9.5,12.66682609375,9.5Q12.56737609375,9.5,12.47548609375,9.53806Q12.38360609375,9.57612,12.31327609375,9.646447L8.97994309375,12.97978Q8.90961609375,13.05011,8.87155609375,13.14199Q8.83349609375,13.23388,8.83349609375,13.33333ZM9.83349609375,14.16667L10.45972609375,14.16667L13.29305609375,11.33333L12.66682609375,10.707107L9.83349609375,13.54044L9.83349609375,14.16667Z"
        fill-opacity="1" />
    </g>
    <g>
      <path
        d="M10,5.16682609375L13.33333,5.16682609375Q13.38258,5.16682609375,13.43088,5.157226093749999Q13.47918,5.14761609375,13.52467,5.12876609375Q13.570170000000001,5.1099260937499995,13.61112,5.08256609375Q13.65206,5.05520609375,13.68689,5.02038609375Q13.72171,4.9855560937500005,13.74907,4.94461609375Q13.77643,4.90366609375,13.79527,4.85816609375Q13.814119999999999,4.8126760937499995,13.82373,4.76437609375Q13.83333,4.71607609375,13.83333,4.66682609375Q13.83333,4.61758609375,13.82373,4.56928609375Q13.814119999999999,4.52098609375,13.79527,4.47548609375Q13.77643,4.42998609375,13.74907,4.38904609375Q13.72171,4.34809609375,13.68689,4.31327609375Q13.65206,4.27845609375,13.61112,4.25109609375Q13.570170000000001,4.22373609375,13.52467,4.20488609375Q13.47918,4.18604609375,13.43088,4.1764360937500005Q13.38258,4.16682609375,13.33333,4.16682609375L10.5,4.16682609375L10.5,1.33349609375Q10.5,1.28425039375,10.490393,1.23595099375Q10.480785000000001,1.18765109375,10.46194,1.1421540937499999Q10.443094,1.09665709375,10.415735,1.05571109375Q10.388375,1.01476509375,10.353553,0.97994309375Q10.318731,0.94512109375,10.277785,0.91776109375Q10.236839,0.89040209375,10.191342,0.87155609375Q10.145845,0.85271109375,10.0975451,0.8431030937499999Q10.0492457,0.83349609375,10,0.83349609375Q9.9507543,0.83349609375,9.9024549,0.8431030937499999Q9.854155,0.85271109375,9.808658,0.87155609375Q9.763161,0.89040209375,9.722215,0.91776109375Q9.681269,0.94512109375,9.646447,0.97994309375Q9.611625,1.01476509375,9.584265,1.05571109375Q9.556906,1.09665709375,9.53806,1.1421540937499999Q9.519214999999999,1.18765109375,9.509607,1.23595099375Q9.5,1.28425039375,9.5,1.33349609375L9.5,4.66682609375Q9.5,4.71607609375,9.509607,4.76437609375Q9.519214999999999,4.8126760937499995,9.53806,4.85816609375Q9.556906,4.90366609375,9.584265,4.94461609375Q9.611625,4.9855560937500005,9.646447,5.02038609375Q9.681269,5.05520609375,9.722215,5.08256609375Q9.763161,5.1099260937499995,9.808658,5.12876609375Q9.854155,5.14761609375,9.9024549,5.157226093749999Q9.9507543,5.16682609375,10,5.16682609375Z"
        fill-opacity="1" />
    </g>
  </g>
</svg>