<svg xmlns="http://www.w3.org/2000/svg" xmlns:xlink="http://www.w3.org/1999/xlink"  version="1.1" width="16" height="16" viewBox="0 0 16 16"><defs><clipPath id="master_svg0_7_19125"><rect x="16" y="16" width="16" height="16" rx="0"/></clipPath></defs><g transform="matrix(-1,0,0,-1,32,32)" clip-path="url(#master_svg0_7_19125)"><g><rect x="16" y="16" width="16" height="16" rx="0"  fill-opacity="0.009999999776482582"/></g><g><path d="M18.932321953125,18.9324440234375Q16.833251953125,21.0315040234375,16.833251953125,24.0000440234375Q16.833251953125,26.968574023437498,18.932321953125,29.067674023437498Q21.031381953125,31.1666740234375,23.999921953125,31.1666740234375Q26.968451953124998,31.1666740234375,29.067551953124998,29.067674023437498Q31.166551953125,26.968574023437498,31.166551953125,24.0000440234375Q31.166551953125,21.0315040234375,29.067551953124998,18.9324440234375Q26.968451953124998,16.8333740234375,23.999921953125,16.8333740234375Q21.031391953125,16.8333740234375,18.932321953125,18.9324440234375ZM19.639421953125,28.3605740234375Q17.833251953125,26.5543540234375,17.833251953125,24.0000440234375Q17.833250953125,21.4457240234375,19.639421953125,19.6395440234375Q21.445601953125,17.8333740234375,23.999921953125,17.8333740234375Q26.554231953125,17.8333740234375,28.360451953125,19.6395440234375Q30.166551953125,21.4457240234375,30.166551953125,24.0000440234375Q30.166551953125,26.5543640234375,28.360451953125,28.3605740234375Q26.554231953125,30.1666740234375,23.999921953125,30.1666740234375Q21.445601953125,30.1666740234375,19.639421953125,28.3605740234375Z" fill-rule="evenodd"  fill-opacity="1"/></g><g><path d="M21.353613,22.646506L21.353553,22.646447Q21.283227,22.57612,21.191342,22.53806Q21.0994562,22.5,21,22.5Q20.9005438,22.5,20.808658,22.53806Q20.716773,22.57612,20.646447,22.646447Q20.57612,22.716773,20.53806,22.808658Q20.5,22.9005438,20.5,23Q20.5,23.0994562,20.53806,23.191342Q20.57612,23.283227,20.646447,23.353553L20.646506,23.353613L23.64645,26.35355Q23.71677,26.42388,23.80866,26.46194Q23.90054,26.5,24,26.5Q24.09946,26.5,24.19134,26.46194Q24.28323,26.42388,24.35355,26.35355L27.353369999999998,23.353741L27.35355,23.353553Q27.42388,23.283227,27.46194,23.191342Q27.5,23.0994562,27.5,23Q27.5,22.9005438,27.46194,22.808658Q27.42388,22.716773,27.35355,22.646447Q27.28323,22.57612,27.19134,22.53806Q27.09946,22.5,27,22.5Q26.90054,22.5,26.80866,22.53806Q26.71677,22.57612,26.64645,22.646447L26.646259999999998,22.646634L24,25.29289L21.353613,22.646506Z" fill-rule="evenodd"  fill-opacity="1"/></g></g></svg>