<svg xmlns="http://www.w3.org/2000/svg" xmlns:xlink="http://www.w3.org/1999/xlink" fill="none" version="1.1" width="24" height="24" viewBox="0 0 24 24"><defs><clipPath id="master_svg0_544_24667"><rect x="0" y="0" width="24" height="24" rx="0"/></clipPath></defs><g clip-path="url(#master_svg0_544_24667)"><g><path d="M22.5,12Q22.5,12.2578,22.4874,12.5152Q22.4747,12.7727,22.4494,13.0292Q22.4242,13.2857,22.3864,13.5407Q22.3485,13.7956,22.2982,14.0484Q22.248,14.3013,22.1853,14.5513Q22.1227,14.8013,22.0479,15.048Q21.973,15.2946,21.8862,15.5373Q21.7994,15.78,21.7007,16.0182Q21.6021,16.2563,21.4919,16.4893Q21.3817,16.7223,21.2602,16.9497Q21.1387,17.177,21.0061,17.3981Q20.8736,17.6192,20.7304,17.8335Q20.5872,18.0478,20.4337,18.2548Q20.2801,18.4619,20.1166,18.6611Q19.9531,18.8604,19.78,19.0514Q19.6069,19.2424,19.4246,19.4246Q19.2424,19.6069,19.0514,19.78Q18.8604,19.9531,18.6611,20.1166Q18.4619,20.2801,18.2548,20.4337Q18.0478,20.5872,17.8335,20.7304Q17.6192,20.8736,17.3981,21.0061Q17.177,21.1387,16.9497,21.2602Q16.7223,21.3817,16.4893,21.4919Q16.2563,21.6021,16.0182,21.7007Q15.78,21.7994,15.5373,21.8862Q15.2946,21.973,15.048,22.0479Q14.8013,22.1227,14.5513,22.1853Q14.3013,22.248,14.0484,22.2982Q13.7956,22.3485,13.5407,22.3864Q13.2857,22.4242,13.0292,22.4494Q12.7727,22.4747,12.5152,22.4874Q12.2578,22.5,12,22.5Q11.7422,22.5,11.48479,22.4874Q11.22734,22.4747,10.97082,22.4494Q10.7143,22.4242,10.45933,22.3864Q10.20436,22.3485,9.95155,22.2982Q9.69874,22.248,9.44871,22.1853Q9.19867,22.1227,8.95201,22.0479Q8.70535,21.973,8.46266,21.8862Q8.21996,21.7994,7.98182,21.7007Q7.74368,21.6021,7.51067,21.4919Q7.27766,21.3817,7.05033,21.2602Q6.82301,21.1387,6.60192,21.0061Q6.38083,20.8736,6.16651,20.7304Q5.95219,20.5872,5.74516,20.4337Q5.53812,20.2801,5.33887,20.1166Q5.13962,19.9531,4.94863,19.78Q4.75764,19.6069,4.57538,19.4246Q4.39311,19.2424,4.22001,19.0514Q4.0469100000000005,18.8604,3.88339,18.6611Q3.71987,18.4619,3.56632,18.2548Q3.41277,18.0478,3.26957,17.8335Q3.12636,17.6192,2.99385,17.3981Q2.8613299999999997,17.177,2.73983,16.9497Q2.6183199999999998,16.7223,2.5081100000000003,16.4893Q2.3979049999999997,16.2563,2.299265,16.0182Q2.200624,15.78,2.113787,15.5373Q2.0269500000000003,15.2946,1.952126,15.048Q1.877302,14.8013,1.814672,14.5513Q1.752041,14.3013,1.701755,14.0484Q1.651468,13.7956,1.613647,13.5407Q1.5758253,13.2857,1.5505604,13.0292Q1.5252954,12.7727,1.5126477,12.5152Q1.5,12.2578,1.5,12Q1.5,11.7422,1.5126477,11.48479Q1.5252954,11.22734,1.5505604,10.97082Q1.5758253,10.7143,1.613647,10.45933Q1.651468,10.20436,1.701755,9.95155Q1.752041,9.69874,1.814672,9.44871Q1.877302,9.19867,1.952126,8.95201Q2.0269500000000003,8.70535,2.113787,8.46266Q2.200624,8.21996,2.299265,7.98182Q2.3979049999999997,7.74368,2.5081100000000003,7.51067Q2.6183199999999998,7.27766,2.73983,7.05033Q2.8613299999999997,6.82301,2.99385,6.60192Q3.12636,6.38083,3.26957,6.16651Q3.41277,5.95219,3.56632,5.74516Q3.71987,5.53812,3.88339,5.33887Q4.0469100000000005,5.13962,4.22001,4.94863Q4.39311,4.75764,4.57538,4.57538Q4.75764,4.39311,4.94863,4.22001Q5.13962,4.0469100000000005,5.33887,3.88339Q5.53812,3.71987,5.74516,3.56632Q5.95219,3.41277,6.16651,3.26957Q6.38083,3.12636,6.60192,2.99385Q6.82301,2.8613299999999997,7.05033,2.73983Q7.27766,2.6183199999999998,7.51067,2.5081100000000003Q7.74368,2.3979049999999997,7.98182,2.299265Q8.21996,2.200624,8.46266,2.113787Q8.70535,2.0269500000000003,8.95201,1.952126Q9.19867,1.877302,9.44871,1.814672Q9.69874,1.752041,9.95155,1.701755Q10.20436,1.651468,10.45933,1.613647Q10.7143,1.5758253,10.97082,1.5505604Q11.22734,1.5252954,11.48479,1.5126477Q11.7422,1.5,12,1.5Q12.2578,1.5,12.5152,1.5126477Q12.7727,1.5252954,13.0292,1.5505604Q13.2857,1.5758253,13.5407,1.613647Q13.7956,1.651468,14.0484,1.701755Q14.3013,1.752041,14.5513,1.814672Q14.8013,1.877302,15.048,1.952126Q15.2946,2.0269500000000003,15.5373,2.113787Q15.78,2.200624,16.0182,2.299265Q16.2563,2.3979049999999997,16.4893,2.5081100000000003Q16.7223,2.6183199999999998,16.9497,2.73983Q17.177,2.8613299999999997,17.3981,2.99385Q17.6192,3.12636,17.8335,3.26957Q18.0478,3.41277,18.2548,3.56632Q18.4619,3.71987,18.6611,3.88339Q18.8604,4.0469100000000005,19.0514,4.22001Q19.2424,4.39311,19.4246,4.57538Q19.6069,4.75764,19.78,4.94863Q19.9531,5.13962,20.1166,5.33887Q20.2801,5.53812,20.4337,5.74516Q20.5872,5.95219,20.7304,6.16651Q20.8736,6.38083,21.0061,6.60192Q21.1387,6.82301,21.2602,7.05033Q21.3817,7.27766,21.4919,7.51067Q21.6021,7.74368,21.7007,7.98182Q21.7994,8.21996,21.8862,8.46266Q21.973,8.70535,22.0479,8.95201Q22.1227,9.19867,22.1853,9.44871Q22.248,9.69874,22.2982,9.95155Q22.3485,10.20436,22.3864,10.45933Q22.4242,10.7143,22.4494,10.97082Q22.4747,11.22734,22.4874,11.48479Q22.5,11.7422,22.5,12ZM11.4375,6.75C11.33438,6.75,11.25,6.83437,11.25,6.9375L11.25,13.3125C11.25,13.4156,11.33438,13.5,11.4375,13.5L12.5625,13.5C12.6656,13.5,12.75,13.4156,12.75,13.3125L12.75,6.9375C12.75,6.83437,12.6656,6.75,12.5625,6.75L11.4375,6.75ZM13.125,16.125Q13.125,16.180300000000003,13.1196,16.235300000000002Q13.1142,16.290300000000002,13.1034,16.3445Q13.0926,16.398699999999998,13.0766,16.4516Q13.0605,16.5045,13.0394,16.555500000000002Q13.0182,16.6066,12.9922,16.6553Q12.9661,16.7041,12.9354,16.75Q12.9047,16.796,12.8696,16.8387Q12.8346,16.8814,12.7955,16.9205Q12.7564,16.959600000000002,12.7137,16.9946Q12.671,17.0297,12.625,17.0604Q12.5791,17.0911,12.5303,17.1172Q12.4816,17.1432,12.4305,17.1644Q12.3795,17.185499999999998,12.3266,17.2016Q12.2737,17.217599999999997,12.2195,17.2284Q12.1653,17.2392,12.1103,17.2446Q12.0553,17.25,12,17.25Q11.9447,17.25,11.8897,17.2446Q11.8347,17.2392,11.7805,17.2284Q11.7263,17.217599999999997,11.6734,17.2016Q11.6205,17.185499999999998,11.5695,17.1644Q11.5184,17.1432,11.46968,17.1172Q11.42094,17.0911,11.37498,17.0604Q11.32903,17.0297,11.28631,16.9946Q11.24358,16.959600000000002,11.2045,16.9205Q11.16542,16.8814,11.13036,16.8387Q11.0953,16.796,11.0646,16.75Q11.03389,16.7041,11.00784,16.6553Q10.98178,16.6066,10.96063,16.555500000000002Q10.93948,16.5045,10.92344,16.4516Q10.9074,16.398699999999998,10.89662,16.3445Q10.88583,16.290300000000002,10.88042,16.235300000000002Q10.875,16.180300000000003,10.875,16.125Q10.875,16.069699999999997,10.88042,16.014699999999998Q10.88583,15.9597,10.89662,15.9055Q10.9074,15.8513,10.92344,15.7984Q10.93948,15.7455,10.96063,15.6945Q10.98178,15.6434,11.00784,15.5947Q11.03389,15.5459,11.0646,15.5Q11.0953,15.454,11.13036,15.4113Q11.16542,15.3686,11.2045,15.3295Q11.24358,15.2904,11.28631,15.2554Q11.32903,15.2203,11.37498,15.1896Q11.42094,15.1589,11.46968,15.1328Q11.5184,15.1068,11.5695,15.0856Q11.6205,15.0645,11.6734,15.0484Q11.7263,15.0324,11.7805,15.0216Q11.8347,15.0108,11.8897,15.0054Q11.9447,15,12,15Q12.0553,15,12.1103,15.0054Q12.1653,15.0108,12.2195,15.0216Q12.2737,15.0324,12.3266,15.0484Q12.3795,15.0645,12.4305,15.0856Q12.4816,15.1068,12.5303,15.1328Q12.5791,15.1589,12.625,15.1896Q12.671,15.2203,12.7137,15.2554Q12.7564,15.2904,12.7955,15.3295Q12.8346,15.3686,12.8696,15.4113Q12.9047,15.454,12.9354,15.5Q12.9661,15.5459,12.9922,15.5947Q13.0182,15.6434,13.0394,15.6945Q13.0605,15.7455,13.0766,15.7984Q13.0926,15.8513,13.1034,15.9055Q13.1142,15.9597,13.1196,16.014699999999998Q13.125,16.069699999999997,13.125,16.125Z" fill-rule="evenodd" fill="#FF9800" fill-opacity="1"/></g></g></svg>