<svg xmlns="http://www.w3.org/2000/svg" xmlns:xlink="http://www.w3.org/1999/xlink"  version="1.1" ><defs><clipPath id="master_svg0_21_4445"><rect x="16" y="16" width="16" height="16" rx="0"/></clipPath></defs><g transform="matrix(-1,0,0,-1,32,32)" clip-path="url(#master_svg0_21_4445)"><g><rect x="16" y="16" width="16" height="16" rx="0" fill="#FFFFFF" fill-opacity="0.009999999776482582"/></g><g><rect x="16" y="16" width="16" height="16" rx="0" fill="#FFFFFF" fill-opacity="0.009999999776482582"/></g><g><path d="M17.8966585875,25.715558447265625Q18.4116161875,26.307738447265624,19.1957221875,26.299988447265626L22.293082187499998,26.299988447265626L22.293082187499998,28.200008447265624Q22.293082187499998,29.152708447265624,22.9667421875,29.826308447265625Q23.6404021875,30.500008447265625,24.593082187500002,30.500008447265625Q24.6656221875,30.500008447265625,24.735172187499998,30.479408447265627Q24.8047221875,30.458808447265625,24.8655421875,30.419208447265625Q24.9263621875,30.379708447265624,24.9734521875,30.324508447265625Q25.0205321875,30.269308447265622,25.0499921875,30.203008447265624L27.4499921875,24.803058447265624Q27.4930821875,24.706088447265625,27.4930821875,24.599988447265623L27.4930821875,17.999986171765624Q27.4930821875,17.950740447265623,27.4834821875,17.902441047265626Q27.4738721875,17.854141447265626,27.4550221875,17.808644447265625Q27.436182187500002,17.763147447265624,27.4088221875,17.722201447265626Q27.3814621875,17.681254447265626,27.346642187500002,17.646432447265624Q27.3118121875,17.611610447265626,27.2708721875,17.584251447265626Q27.2299221875,17.556892447265625,27.184422187499997,17.538046447265625Q27.1389321875,17.519200447265625,27.0906321875,17.509593447265626Q27.0423321875,17.499986447265623,26.9930821875,17.499986447265623L20.0210821875,17.499986447265623Q19.3909721875,17.492832447265624,18.9065221875,17.904614347265625Q18.4220721875,18.316396447265625,18.3267411875,18.945018447265625L17.4988651875,24.344208447265625Q17.3807771875,25.122238447265623,17.8966585875,25.715558447265625ZM22.793082187499998,25.299988447265626L19.1930921875,25.299988447265626L19.1874121875,25.300018447265625Q18.8637211875,25.303698447265624,18.6512931875,25.059418447265625Q18.4388491875,24.815078447265627,18.4873131875,24.495768447265625L19.3154321875,19.094958447265626Q19.3546921875,18.836111447265626,19.5541721875,18.666553447265624Q19.7536521875,18.496995447265626,20.0210821875,18.499986447265623L26.4930821875,18.499986447265623L26.4930821875,24.493878447265626L24.2834521875,29.465508447265627Q23.9401021875,29.385508447265625,23.6738521875,29.119208447265628Q23.293082187499998,28.738408447265627,23.293082187499998,28.200008447265624L23.293082187499998,25.799988447265626Q23.293082187499998,25.750738447265626,23.2834821875,25.702438447265624Q23.2738721875,25.654138447265623,23.2550221875,25.608638447265626Q23.2361821875,25.563148447265625,23.2088221875,25.522198447265623Q23.1814621875,25.481258447265624,23.1466421875,25.446428447265625Q23.1118121875,25.411608447265625,23.0708721875,25.384248447265627Q23.0299221875,25.356888447265625,22.9844321875,25.338048447265624Q22.9389321875,25.319198447265624,22.8906321875,25.309588447265625Q22.8423321875,25.299988447265626,22.793082187499998,25.299988447265626Z" fill-rule="evenodd"  fill-opacity="1"/></g><g><path d="M26.4931640625,18.000006357953126L26.4931640625,24.666676376953127Q26.4931640625,24.715916376953125,26.5027710625,24.764216376953126Q26.5123790625,24.812516376953127,26.5312240625,24.858016376953124Q26.5500700625,24.903506376953125,26.5774290625,24.944456376953127Q26.6047890625,24.985406376953126,26.6396110625,25.020226376953126Q26.6744330625,25.055046376953126,26.7153790625,25.082406376953124Q26.7563250625,25.109766376953125,26.8018220625,25.128616376953126Q26.8473190625,25.147456376953123,26.8956189625,25.157066376953125Q26.9439183625,25.166676376953127,26.9931640625,25.166676376953127L28.5863240625,25.166596376953123Q29.3073340625,25.179346376953127,29.8619540625,24.666286376953124Q30.3928640625,24.175146376953126,30.4886540625,23.467026376953125Q30.4931640625,23.433666376953127,30.4931640625,23.400006376953126L30.4931640625,19.200006376953127Q30.4931640625,19.166346376953125,30.4886540625,19.132986376953124Q30.3924840625,18.422001376953126,29.8480740625,17.954701176953126Q29.3036740625,17.487399376953125,28.5951640625,17.500006376953124L26.9931640625,17.500006376953124Q26.9439183625,17.500006376953124,26.8956189625,17.509613376953126Q26.8473190625,17.519221376953126,26.8018220625,17.538066376953125Q26.7563250625,17.556912376953125,26.7153790625,17.584271376953126Q26.6744330625,17.611631376953124,26.6396110625,17.646453376953126Q26.6047890625,17.681275376953124,26.5774290625,17.722221376953126Q26.5500700625,17.763167376953124,26.5312240625,17.808664376953125Q26.5123790625,17.854161376953126,26.5027710625,17.902461176953125Q26.4931640625,17.950760676953124,26.4931640625,18.000006357953126ZM27.4931640625,24.166696376953126L28.6040040625,24.166756376953124Q28.9232440625,24.172396376953124,29.182874062499998,23.932216376953125Q29.4385440625,23.695706376953126,29.4931640625,23.363136376953126L29.4931640625,19.237076376953127Q29.4409440625,18.923104376953123,29.1967540625,18.713496376953124Q28.9410040625,18.493968376953124,28.5951640625,18.500006376953124L27.4931640625,18.500006376953124L27.4931640625,24.166696376953126Z" fill-rule="evenodd"  fill-opacity="1"/></g></g></svg>