<svg xmlns="http://www.w3.org/2000/svg" xmlns:xlink="http://www.w3.org/1999/xlink" version="1.1" width="24" height="24" viewBox="0 0 24 24"><defs><clipPath id="master_svg0_5672_21623"><rect x="0" y="0" width="24" height="24" rx="0"/></clipPath></defs><g clip-path="url(#master_svg0_5672_21623)"><g><rect x="0" y="0" width="24" height="24" rx="0" fill-opacity="0.009999999776482582"/></g><g><path d="M2.325347,7.91277Q1.5,9.86411,1.5,12Q1.5,14.1359,2.325347,16.0872Q3.1223799999999997,17.971600000000002,4.57538,19.4246Q6.02837,20.8776,7.91277,21.6747Q9.86411,22.5,12,22.5Q14.1359,22.5,16.0872,21.6747Q17.971600000000002,20.8776,19.4246,19.4246Q20.8776,17.971600000000002,21.6747,16.0872Q22.5,14.1359,22.5,12Q22.5,9.86411,21.6747,7.91277Q20.8776,6.02837,19.4246,4.57538Q17.971600000000002,3.1223799999999997,16.0872,2.325347Q14.1359,1.5,12,1.5Q9.86411,1.5,7.91277,2.325347Q6.02838,3.1223799999999997,4.57538,4.57538Q3.1223799999999997,6.02838,2.325347,7.91277ZM3.24635,15.6977Q2.5,13.9331,2.5,12Q2.5,10.0669,3.24635,8.30232Q3.9674,6.59757,5.28248,5.28248Q6.59756,3.9674,8.30232,3.24635Q10.0669,2.5,12,2.5Q13.9331,2.5,15.6977,3.24635Q17.4024,3.9674,18.7175,5.28248Q20.0326,6.59756,20.7536,8.30232Q21.5,10.06689,21.5,12Q21.5,13.9331,20.7536,15.6977Q20.0326,17.4024,18.7175,18.7175Q17.4024,20.0326,15.6977,20.7536Q13.9331,21.5,12,21.5Q10.0669,21.5,8.30232,20.7536Q6.59756,20.0326,5.28248,18.7175Q3.9674,17.4024,3.24635,15.6977Z" fill-rule="evenodd" fill-opacity="1"/></g><g><path d="M2,12.5L22,12.5Q22.0492,12.5,22.0975,12.490393Q22.1458,12.480785000000001,22.1913,12.46194Q22.2368,12.443094,22.2778,12.415735Q22.3187,12.388375,22.3536,12.353553Q22.3884,12.318731,22.4157,12.277785Q22.4431,12.236839,22.4619,12.191342Q22.4808,12.145845,22.4904,12.0975451Q22.5,12.0492457,22.5,12Q22.5,11.9507543,22.4904,11.9024549Q22.4808,11.854155,22.4619,11.808658Q22.4431,11.763161,22.4157,11.722215Q22.3884,11.681269,22.3536,11.646447Q22.3187,11.611625,22.2778,11.584265Q22.2368,11.556906,22.1913,11.53806Q22.1458,11.519214999999999,22.0975,11.509607Q22.0492,11.5,22,11.5L2,11.5Q1.9507543,11.5,1.9024549,11.509607Q1.854155,11.519214999999999,1.8086579999999999,11.53806Q1.763161,11.556906,1.722215,11.584265Q1.681269,11.611625,1.646447,11.646447Q1.611625,11.681269,1.584265,11.722215Q1.5569060000000001,11.763161,1.53806,11.808658Q1.519215,11.854155,1.509607,11.9024549Q1.5,11.9507543,1.5,12Q1.5,12.0492457,1.509607,12.0975451Q1.519215,12.145845,1.53806,12.191342Q1.5569060000000001,12.236839,1.584265,12.277785Q1.611625,12.318731,1.646447,12.353553Q1.681269,12.388375,1.722215,12.415735Q1.763161,12.443094,1.8086579999999999,12.46194Q1.854155,12.480785000000001,1.9024549,12.490393Q1.9507543,12.5,2,12.5Z" fill-rule="evenodd" fill-opacity="1"/></g><g><path d="M8.70733,4.74324Q7.5,7.76157,7.5,12Q7.5,16.2384,8.70733,19.2568Q10.00462,22.5,12,22.5Q13.99538,22.5,15.292670000000001,19.2568Q16.5,16.2384,16.5,12Q16.5,7.76157,15.292670000000001,4.74324Q13.99538,1.4999989999999999,12,1.5Q10.00462,1.5,8.70733,4.74324ZM9.63581,18.8854Q8.5,16.0459,8.5,12Q8.5,7.95415,9.63581,5.11463Q10.154,3.81914,10.80629,3.1294Q11.40152,2.5,12,2.5Q12.59848,2.5,13.19371,3.1294Q13.846,3.81914,14.36419,5.11463Q15.5,7.95415,15.5,12Q15.5,16.0458,14.36419,18.8854Q13.846,20.1809,13.19371,20.8706Q12.59848,21.5,12,21.5Q11.40152,21.5,10.80629,20.8706Q10.154,20.1809,9.63581,18.8854Z" fill-rule="evenodd" fill-opacity="1"/></g><g><path d="M16.0870109375,7.674650643920899Q17.9714109375,6.877610643920899,19.4244109375,5.424603643920898Q19.494710937500003,5.3542776439208986,19.532810937500003,5.262392643920898Q19.5708109375,5.170506843920898,19.5708109375,5.071050643920898Q19.5708109375,4.971594543920898,19.532810937500003,4.879708643920899Q19.494710937500003,4.787823643920898,19.4244109375,4.717497643920899Q19.3541109375,4.647171643920898,19.2622109375,4.609110643920898Q19.1703109375,4.571050643920898,19.0708109375,4.571050643920898Q18.9714109375,4.571050643920898,18.8795109375,4.609110643920898Q18.7876109375,4.647171643920898,18.717310937500002,4.717497643920899Q17.4022109375,6.032588643920898,15.6974109375,6.753640643920899Q13.9328709375,7.500000643920899,11.9997509375,7.500000643920899Q10.0666709375,7.500000643920899,8.3021009375,6.753640643920899Q6.5973509375,6.032585643920898,5.2822649375,4.717497643920899Q5.2119389375,4.647171643920898,5.1200529375,4.609110643920898Q5.0281674375,4.571050643920898,4.928711234283,4.571050643920898Q4.9157669375,4.571050643920898,4.9028402375,4.571720643920899Q4.8102179375,4.576519643920898,4.7254789375,4.614217643920899Q4.6407399375,4.651915643920899,4.5751579375,4.7174966439208985Q4.5048319375,4.787822643920898,4.4667709375,4.879708643920899Q4.4287109375,4.971594243920898,4.4287109375,5.071050643920898Q4.4287109375,5.083994543920898,4.4293809375,5.096921343920898Q4.4341789375,5.189543643920898,4.4718779375,5.274282643920898Q4.5095759375,5.359021643920898,4.5751569375,5.424603643920898Q6.0281609375,6.877610643920899,7.9125509375,7.674650643920899Q9.863890937499999,8.500000643920899,11.9997509375,8.500000643920899Q14.1356609375,8.500000643920899,16.0870109375,7.674650643920899Z" fill-rule="evenodd" fill-opacity="1"/></g><g><path d="M7.9125509375,16.325355Q6.0281609375,17.12239,4.5751569375,18.575400000000002Q4.5048309375,18.64572,4.4667709375,18.73761Q4.4287109375,18.82949,4.4287109375,18.92895Q4.4287109375,19.02841,4.4667709375,19.12029Q4.5048319375,19.21218,4.5751579375,19.2825Q4.6454839375,19.35283,4.7373699375,19.39089Q4.8292549375,19.42895,4.9287109375,19.42895Q5.0281670375,19.42895,5.1200529375,19.39089Q5.2119379375,19.35283,5.2822649375,19.2825Q6.5973509375,17.96741,8.3021009375,17.24636Q10.0666709375,16.5,11.9997509375,16.5Q13.9328709375,16.5,15.6974109375,17.24636Q17.402010937500002,17.96731,18.7169109375,19.28212L18.717310937500002,19.2825Q18.7876109375,19.35283,18.8795109375,19.39089Q18.9714109375,19.42895,19.0708109375,19.42895Q19.1703109375,19.42895,19.2622109375,19.39089Q19.3541109375,19.35283,19.4244109375,19.2825Q19.494710937500003,19.21218,19.532810937500003,19.12029Q19.5708109375,19.02841,19.5708109375,18.92895Q19.5708109375,18.82949,19.532810937500003,18.73761Q19.494710937500003,18.64572,19.4244109375,18.575400000000002L19.4240109375,18.57499Q17.9711109375,17.12228,16.0870109375,16.325355Q14.1356609375,15.5,11.9997509375,15.5Q9.8638809375,15.5,7.9125509375,16.325355Z" fill-rule="evenodd" fill-opacity="1"/></g></g></svg>