<?xml version="1.0" standalone="no"?><!DOCTYPE svg PUBLIC "-//W3C//DTD SVG 1.1//EN" "http://www.w3.org/Graphics/SVG/1.1/DTD/svg11.dtd"><svg t="1714115677677" class="icon" viewBox="0 0 1024 1024" version="1.1" xmlns="http://www.w3.org/2000/svg" p-id="5379" xmlns:xlink="http://www.w3.org/1999/xlink" width="32" height="32"><path d="M510.8 1024c-218.3 0-404-137.3-478.3-330.5 0 0 0-2.3-2.3-2.3C11.6 635.3 0 574.8 0 512c0-62.8 11.6-123.3 32.5-179.2 0 0 0-2.3 2.3-2.3C106.8 137.3 292.6 0 510.8 0c218.3 0 404 137.3 478.3 330.5 0 0 0 2.3 2.3 2.3 20.9 55.9 32.5 116.4 32.5 179.2 0 62.8-11.6 123.4-32.5 179.2 0 0 0 2.3-2.3 2.3-74.2 193.2-260 330.5-478.3 330.5zM109.1 395.6c-9.3 37.2-16.3 76.8-16.3 116.4 0 39.6 7 79.1 16.3 116.4h153.2c-4.6-37.2-7-76.8-7-116.4 0-39.6 2.3-79.1 7-116.4H109.1z m227.6-262.9c-78.9 34.9-144 95.4-188.1 169.9h127.7c13.9-65.2 34.8-123.4 60.4-169.9z m18.6 262.9c-4.6 37.2-7 74.5-7 116.4 0 41.9 2.3 79.1 7 116.4h311.1c4.6-37.2 7-74.5 7-116.4 0-41.9-2.3-79.1-7-116.4H355.3zM510.8 93.1c-51.1 0-106.8 81.5-139.3 209.5h278.6C617.6 174.5 561.9 93.1 510.8 93.1z m234.6 628.4c-13.9 65.2-34.8 123.3-60.4 169.9 78.9-37.2 144-95.4 188.1-169.9H745.4z m127.7-419C829 228.1 763.9 167.6 685 132.7c25.5 46.5 46.4 104.7 60.4 169.9h127.7zM928.8 512c0-39.6-7-79.1-16.3-116.4H759.3c4.6 37.2 7 76.8 7 116.4 0 39.6-2.3 79.1-7 116.4h153.3c9.2-37.3 16.2-76.8 16.2-116.4z m-418 418.9c51.1 0 106.8-81.5 139.3-209.5H371.5c32.5 128.1 88.3 209.5 139.3 209.5zM148.6 721.5c44.1 74.5 109.1 135 188.1 169.9-25.5-46.5-46.4-104.7-60.4-169.9H148.6z m0 0" p-id="5380"></path></svg>