<svg xmlns="http://www.w3.org/2000/svg" xmlns:xlink="http://www.w3.org/1999/xlink" version="1.1" width="16" height="16" viewBox="0 0 16 16"><defs><clipPath id="master_svg0_sa10_36931"><rect x="0" y="0" width="16" height="16" rx="0"/></clipPath></defs><g clip-path="url(#master_svg0_sa10_36931)"><g><rect x="0" y="0" width="16" height="16" rx="0" fill-opacity="0.009999999776482582"/></g><g><path d="M1.35,10.90625L1.35,5.09375Q1.35,3.54304,2.446519,2.446519Q3.54304,1.35,5.09375,1.35L10.90625,1.35Q12.457,1.35,13.5535,2.446519Q14.65,3.54304,14.65,5.09375L14.65,10.90625Q14.65,12.457,13.5535,13.5535Q12.457,14.65,10.90625,14.65L5.09375,14.65Q1.35,14.65,1.35,10.90625ZM2.65,10.90625Q2.650001,13.35,5.09375,13.35L10.90625,13.35Q11.91848,13.35,12.6342,12.6342Q13.35,11.91848,13.35,10.90625L13.35,5.09375Q13.35,4.081519999999999,12.6342,3.36576Q11.91848,2.65,10.90625,2.65L5.09375,2.65Q2.65,2.650001,2.65,5.09375L2.65,10.90625Z" fill-opacity="1"/></g><g><path d="M7.35,5.333335876464844Q7.35,5.2693164764648435,7.36249,5.206526876464844Q7.374979,5.143737876464844,7.399478,5.0845918764648435Q7.423978,5.025445876464843,7.459545,4.972214876464844Q7.495112,4.918984876464844,7.540381,4.873716876464844Q7.585649,4.8284478764648435,7.638879,4.792880876464844Q7.69211,4.757313876464844,7.751256,4.732813876464844Q7.810402,4.7083148764648435,7.873191,4.695825876464844Q7.9359806,4.683335876464843,8,4.683335876464843Q8.0640194,4.683335876464843,8.126809,4.695825876464844Q8.189598,4.7083148764648435,8.248744,4.732813876464844Q8.30789,4.757313876464844,8.361121,4.792880876464844Q8.414351,4.8284478764648435,8.459619,4.873716876464844Q8.504888,4.918984876464844,8.540455,4.972214876464844Q8.576022,5.025445876464843,8.600522,5.0845918764648435Q8.625021,5.143737876464844,8.63751,5.206526876464844Q8.65,5.2693164764648435,8.65,5.333335876464844L8.65,10.666665876464844Q8.65,10.730685876464843,8.63751,10.793475876464843Q8.625021,10.856265876464843,8.600522,10.915415876464845Q8.576022,10.974555876464844,8.540455,11.027785876464844Q8.504888,11.081015876464843,8.459619,11.126285876464845Q8.414351,11.171555876464843,8.361121,11.207125876464843Q8.30789,11.242695876464843,8.248744,11.267185876464843Q8.189598,11.291685876464843,8.126809,11.304175876464843Q8.0640194,11.316665876464842,8,11.316665876464842Q7.9359806,11.316665876464842,7.873191,11.304175876464843Q7.810402,11.291685876464843,7.751256,11.267195876464843Q7.69211,11.242695876464843,7.638879,11.207125876464843Q7.585649,11.171555876464843,7.540381,11.126285876464845Q7.495112,11.081015876464843,7.459545,11.027785876464844Q7.423978,10.974555876464844,7.399478,10.915415876464845Q7.374979,10.856265876464843,7.36249,10.793475876464843Q7.35,10.730685876464843,7.35,10.666665876464844L7.35,5.333335876464844Z" fill-rule="evenodd" fill-opacity="1"/></g><g><path d="M5.33349609375,7.35L10.66682609375,7.35Q10.73084609375,7.35,10.793636093749999,7.36249Q10.856426093749999,7.374979,10.915576093750001,7.399478Q10.97471609375,7.423978,11.02794609375,7.459545Q11.081176093749999,7.495112,11.126446093750001,7.540381Q11.17171609375,7.585649,11.20728609375,7.638879Q11.24285609375,7.69211,11.26734609375,7.751256Q11.29184609375,7.810402,11.304336093749999,7.873191Q11.316826093749999,7.9359806,11.316826093749999,8Q11.316826093749999,8.0640194,11.304336093749999,8.126809Q11.29184609375,8.189598,11.26735609375,8.248744Q11.24285609375,8.30789,11.20728609375,8.361121Q11.17171609375,8.414351,11.126446093750001,8.459619Q11.081176093749999,8.504888,11.02794609375,8.540455Q10.97471609375,8.576022,10.915576093750001,8.600522Q10.856426093749999,8.625021,10.793636093749999,8.63751Q10.73084609375,8.65,10.66682609375,8.65L5.33349609375,8.65Q5.26947669375,8.65,5.20668709375,8.63751Q5.14389809375,8.625021,5.08475209375,8.600522Q5.02560609375,8.576022,4.97237509375,8.540455Q4.91914509375,8.504888,4.87387709375,8.459619Q4.82860809375,8.414351,4.79304109375,8.361121Q4.75747409375,8.30789,4.73297409375,8.248744Q4.70847509375,8.189598,4.69598609375,8.126809Q4.68349609375,8.0640194,4.68349609375,8Q4.68349609375,7.9359806,4.69598609375,7.873191Q4.70847509375,7.810402,4.73297409375,7.751256Q4.75747409375,7.69211,4.79304109375,7.638879Q4.82860809375,7.585649,4.87387709375,7.540381Q4.91914509375,7.495112,4.97237509375,7.459545Q5.02560609375,7.423978,5.08475209375,7.399478Q5.14389809375,7.374979,5.20668709375,7.36249Q5.26947669375,7.35,5.33349609375,7.35Z" fill-rule="evenodd" fill-opacity="1"/></g></g></svg>