<?xml version="1.0" standalone="no"?><!DOCTYPE svg PUBLIC "-//W3C//DTD SVG 1.1//EN" "http://www.w3.org/Graphics/SVG/1.1/DTD/svg11.dtd"><svg t="1722498271068" class="icon" viewBox="0 0 1024 1024" version="1.1" xmlns="http://www.w3.org/2000/svg" p-id="2357" width="15" height="15" xmlns:xlink="http://www.w3.org/1999/xlink"><path d="M512.032 0C229.216 0 0 229.216 0 512c0 282.752 229.216 512 512.032 512C794.816 1024 1024 794.752 1024 512c0-282.784-229.184-512-511.968-512z m-0.064 960C264.576 960 63.936 759.392 63.936 512c0-247.424 200.64-448 448.032-448C759.488 64 960 264.576 960 512c0 247.392-200.512 448-448.032 448z" fill="#5a47e5" p-id="2358"></path><path d="M512 208a176.192 176.192 0 0 0-176 176 48 48 0 1 0 96 0c0-44.096 35.872-80 80-80s80 35.904 80 80c0 28.8-15.36 54.688-41.056 69.248a176.768 176.768 0 0 0-88.128 152.576 48 48 0 1 0 96 0c0-28.384 15.328-54.944 39.936-69.248l2.112-1.312A176.16 176.16 0 0 0 688 384c0-97.056-78.944-176-176-176z" fill="#5a47e5" p-id="2359"></path><path d="M512 768m-64 0a64 64 0 1 0 128 0 64 64 0 1 0-128 0Z" fill="#5a47e5" p-id="2360"></path></svg>