<svg xmlns="http://www.w3.org/2000/svg" xmlns:xlink="http://www.w3.org/1999/xlink" fill="none" version="1.1" width="16" height="16" viewBox="0 0 16 16"><defs><clipPath id="master_svg0_21_3951"><rect x="0" y="0" width="16" height="16" rx="0"/></clipPath></defs><g clip-path="url(#master_svg0_21_3951)"><g><rect x="0" y="0" width="16" height="16" rx="0" fill="#FFFFFF" fill-opacity="0.009999999776482582"/></g><g><path d="M8.00016609375,14.666551953125C9.84109609375,14.666551953125,11.50779609375,13.920351953125,12.71419609375,12.713951953125C13.92059609375,11.507551953125,14.66679609375,9.840851953125,14.66679609375,7.999921953125C14.66679609375,6.158981953125,13.92059609375,4.492321953125,12.71419609375,3.285871953125C11.50779609375,2.079444953125,9.84109609375,1.333251953125,8.00016609375,1.333251953125C6.15922609375,1.333251953125,4.49256609375,2.079444953125,3.28611609375,3.285871953125C2.07968909375,4.492321953125,1.33349609375,6.158981953125,1.33349609375,7.999921953125C1.33349609375,9.840851953125,2.07968909375,11.507551953125,3.28611609375,12.713951953125C4.49256609375,13.920351953125,6.15922609375,14.666551953125,8.00016609375,14.666551953125Z" fill="#FF524C" fill-opacity="1"/><path d="M0.83349609375,7.999921953125Q0.83349609375,10.968421953125,2.93256609375,13.067551953125Q5.03166609375,15.166551953125,8.00016609375,15.166551953125Q10.96866609375,15.166551953125,13.06779609375,13.067551953125Q15.16679609375,10.968421953125,15.16679609375,7.999921953125Q15.16679609375,5.031421953125,13.06779609375,2.932321953125Q10.96866609375,0.833251953125,8.00016609375,0.833251953125Q5.03166609375,0.833251953125,2.93256609375,2.9323119531249997Q0.83349609375,5.031421953125,0.83349609375,7.999921953125ZM8.00016609375,14.166551953125Q5.44587609375,14.166551953125,3.63966609375,12.360351953125Q1.83349609375,10.554211953125,1.83349609375,7.999921953125Q1.83349609375,5.445631953125,3.63966609375,3.639431953125Q5.44587609375,1.833251953125,8.00016609375,1.833251953125Q10.55445609375,1.833251953125,12.36059609375,3.639421953125Q14.16679609375,5.445631953125,14.16679609375,7.999921953125Q14.16679609375,10.554211953125,12.36059609375,12.360351953125Q10.55444609375,14.166551953125,8.00016609375,14.166551953125Z" fill-rule="evenodd" fill="#FF524C" fill-opacity="1"/></g><g><path d="M8.83317390625,11.4999589765625Q8.83317390625,11.5820359765625,8.81715390625,11.6625349765625Q8.801143906250001,11.7430359765625,8.76973390625,11.818865976562499Q8.73832390625,11.8946859765625,8.69272390625,11.9629359765625Q8.64713390625,12.0311759765625,8.58909390625,12.0892159765625Q8.53105390625,12.1472559765625,8.46281390625,12.1928459765625Q8.39456390625,12.2384459765625,8.318743906249999,12.2698559765625Q8.24291390625,12.301265976562501,8.16241290625,12.3172759765625Q8.08191390625,12.3332959765625,7.99983690625,12.3332959765625Q7.91776090625,12.3332959765625,7.83726190625,12.3172759765625Q7.75676290625,12.301265976562501,7.68093390625,12.2698559765625Q7.60510590625,12.2384459765625,7.53686190625,12.1928459765625Q7.4686179062499995,12.1472559765625,7.41058190625,12.0892159765625Q7.35254490625,12.0311759765625,7.30694590625,11.9629359765625Q7.26134680625,11.8946859765625,7.22993760625,11.818865976562499Q7.19852840625,11.7430359765625,7.18251620625,11.6625349765625Q7.16650390625,11.5820359765625,7.16650390625,11.4999589765625Q7.16650390625,11.4178829765625,7.18251620625,11.3373839765625Q7.19852840625,11.2568849765625,7.22993760625,11.1810559765625Q7.26134680625,11.1052279765625,7.30694590625,11.0369839765625Q7.35254490625,10.9687399765625,7.41058190625,10.9107039765625Q7.4686179062499995,10.8526669765625,7.53686190625,10.8070679765625Q7.60510590625,10.7614688765625,7.68093390625,10.7300596765625Q7.75676290625,10.6986504765625,7.83726190625,10.6826382765625Q7.91776090625,10.6666259765625,7.99983690625,10.6666259765625Q8.08191390625,10.6666259765625,8.16241290625,10.6826382765625Q8.24291390625,10.6986504765625,8.318743906249999,10.7300596765625Q8.39456390625,10.7614688765625,8.46281390625,10.8070679765625Q8.53105390625,10.8526669765625,8.58909390625,10.9107039765625Q8.64713390625,10.9687399765625,8.69272390625,11.0369839765625Q8.73832390625,11.1052279765625,8.76973390625,11.1810559765625Q8.801143906250001,11.2568849765625,8.81715390625,11.3373839765625Q8.83317390625,11.4178829765625,8.83317390625,11.4999589765625Z" fill="#FFFFFF" fill-opacity="1"/></g><g><path d="M7.5,4L7.5,9.33333Q7.5,9.38258,7.509607,9.43088Q7.519215,9.47918,7.53806,9.52467Q7.556906,9.570170000000001,7.584265,9.61112Q7.611625,9.652059999999999,7.646447,9.68689Q7.681269,9.72171,7.722215,9.74907Q7.763161,9.776430000000001,7.808658,9.79527Q7.854155,9.814119999999999,7.9024549,9.823730000000001Q7.9507543,9.83333,8,9.83333Q8.0492457,9.83333,8.0975451,9.823730000000001Q8.145845,9.814119999999999,8.191342,9.79527Q8.236839,9.776430000000001,8.277785,9.74907Q8.318731,9.72171,8.353553,9.68689Q8.388375,9.652059999999999,8.415735,9.61112Q8.443094,9.570170000000001,8.46194,9.52467Q8.480785000000001,9.47918,8.490393,9.43088Q8.5,9.38258,8.5,9.33333L8.5,4Q8.5,3.9507543,8.490393,3.9024549Q8.480785000000001,3.854155,8.46194,3.808658Q8.443094,3.763161,8.415735,3.722215Q8.388375,3.681269,8.353553,3.646447Q8.318731,3.611625,8.277785,3.584265Q8.236839,3.556906,8.191342,3.5380599999999998Q8.145845,3.519215,8.0975451,3.509607Q8.0492457,3.5,8,3.5Q7.9507543,3.5,7.9024549,3.509607Q7.854155,3.519215,7.808658,3.5380599999999998Q7.763161,3.556906,7.722215,3.584265Q7.681269,3.611625,7.646447,3.646447Q7.611625,3.681269,7.584265,3.722215Q7.556906,3.763161,7.53806,3.808658Q7.519215,3.854155,7.509607,3.9024549Q7.5,3.9507543,7.5,4Z" fill-rule="evenodd" fill="#FFFFFF" fill-opacity="1"/></g></g></svg>