<svg xmlns="http://www.w3.org/2000/svg" xmlns:xlink="http://www.w3.org/1999/xlink" version="1.1">
  <defs>
    <clipPath id="master_svg0_21_4455">
      <rect x="0" y="0" width="16" height="16" rx="0" />
    </clipPath>
  </defs>
  <g clip-path="url(#master_svg0_21_4455)">
    <g>
      <path
        d="M11.8469,13.110655859375C13.3094,11.966955859375,14.25,10.185695859375,14.25,8.185695859375C14.25,4.734135859375,11.46094,1.941949239375,8.00937,1.937261739605C4.55312,1.932574239375,1.75,4.731015859375,1.75,8.185695859375C1.75,10.141945859375,2.648438,11.887265859375,4.05625,13.032555859375C4.110939999999999,13.076355859375,4.1906300000000005,13.066955859375,4.23438,13.012255859375C4.23438,13.012255859375,4.85,12.223155859375,4.85,12.223155859375C4.892189999999999,12.170055859375,4.88281,12.093555859375,4.83125,12.049755859375C4.704689999999999,11.946655859375,4.58281,11.835695859375,4.4656199999999995,11.718515859375C4.00878,11.263245859375,3.64474,10.723565859375,3.39375,10.129445859375C3.13125,9.515385859375,3,8.860695859375,3,8.185695859375C3,7.510695859375,3.13125,6.856015859375,3.3921900000000003,6.240385859375C3.64375,5.645075859375,4.00469,5.110695859374999,4.46406,4.6513258593749995C4.923439999999999,4.191945859375,5.45781,3.8310158593750003,6.05312,3.5794458593750003C6.67031,3.318515859375,7.325,3.187265859375,8,3.187265859375C8.675,3.187265859375,9.32969,3.318515859375,9.94531,3.5794458593750003C10.54063,3.8310158593750003,11.075,4.191945859375,11.53438,4.6513258593749995C11.9938,5.110695859374999,12.3547,5.645075859375,12.6062,6.240385859375C12.8672,6.856015859375,12.9984,7.510695859375,12.9984,8.185695859375C12.9984,8.860695859375,12.8672,9.515385859375,12.6062,10.131015859375C12.3553,10.725125859375,11.9912,11.264815859375,11.53438,11.720075859375C11.38906,11.865385859375,11.23594,12.001355859375,11.07656,12.126355859375C11.07656,12.126355859375,10.44063,11.312265859375,10.44063,11.312265859375C10.42623,11.293645859375,10.40687,11.279485859375,10.38478,11.271385859375C10.36269,11.263285859375,10.33876,11.261585859375,10.31574,11.266485859375C10.29273,11.271375859375,10.27156,11.282675859375,10.25468,11.299065859375C10.2378,11.315455859375,10.22589,11.336275859375,10.22031,11.359135859375C10.22031,11.359135859375,9.60156,13.893555859375,9.60156,13.893555859375C9.58281,13.971655859375,9.64219,14.048155859375,9.721879999999999,14.048155859375C9.721879999999999,14.048155859375,12.3313,14.060655859375,12.3313,14.060655859375C12.4359,14.060655859375,12.4953,13.940355859375,12.4297,13.859155859375C12.4297,13.859155859375,11.8469,13.110655859375,11.8469,13.110655859375Z"
        fill-opacity="1" />
    </g>
  </g>
</svg>