<?xml version="1.0" standalone="no"?><!DOCTYPE svg PUBLIC "-//W3C//DTD SVG 1.1//EN" "http://www.w3.org/Graphics/SVG/1.1/DTD/svg11.dtd"><svg t="1722575530712" class="icon" viewBox="0 0 1024 1024" version="1.1" xmlns="http://www.w3.org/2000/svg" p-id="9270" width="15" height="15" xmlns:xlink="http://www.w3.org/1999/xlink"><path d="M893.952 444.928c-14.848 0-28.672 6.144-38.4 15.872l-342.016 309.248-343.552-309.76c-9.728-9.728-23.552-15.872-38.4-15.872-30.208 0-54.784 24.576-54.784 54.784 0 14.848 6.144 28.672 15.872 38.4l381.44 351.232c4.096 4.096 8.192 7.168 12.8 9.728 0.512 0.512 1.536 0.512 2.048 1.024 1.024 0.512 1.536 0.512 2.56 1.024 0.512 0.512 1.536 0.512 2.048 1.024h0.512c0.512 0 1.536 0.512 2.048 0.512h0.512c0.512 0 1.536 0.512 2.048 0.512h0.512c0.512 0 1.536 0.512 2.048 0.512h0.512c0.512 0.512 1.536 0.512 2.048 0.512H521.728c0.512-0.512 1.536-0.512 2.048-0.512h0.512c0.512 0 1.536-0.512 2.048-0.512h0.512c0.512 0 1.536-0.512 2.048-0.512h0.512c0.512 0 1.536 0 2.048-0.512h0.512c0.512-0.512 1.536-0.512 2.048-1.024 1.536-0.512 3.072-1.024 4.608-2.048 4.608-2.56 8.704-5.632 12.8-9.216l381.44-351.232c9.728-9.728 15.872-23.552 15.872-38.4 0-30.208-24.576-54.784-54.784-54.784z" p-id="9271" fill="#ffffff"></path><path d="M474.112 562.688c4.096 4.096 8.192 7.168 12.8 9.728 0.512 0.512 1.536 0.512 2.048 1.024 1.024 0.512 1.536 0.512 2.56 1.024 0.512 0.512 1.536 0.512 2.048 1.024h0.512c0.512 0 1.536 0.512 2.048 0.512h0.512c0.512 0 1.536 0.512 2.048 0.512h0.512c0.512 0 1.536 0.512 2.048 0.512h0.512c0.512 0.512 1.536 0.512 2.048 0.512H521.728c0.512-0.512 1.536-0.512 2.048-0.512h0.512c0.512 0 1.536-0.512 2.048-0.512h0.512c0.512 0 1.536-0.512 2.048-0.512h0.512c0.512 0 1.536 0 2.048-0.512h0.512c0.512-0.512 1.536-0.512 2.048-1.024 1.536-0.512 3.072-1.024 4.608-2.048 4.608-2.56 8.704-5.632 13.312-9.216l381.44-351.232c9.728-9.728 15.872-23.552 15.872-38.4 0-30.208-24.576-54.784-54.784-54.784-14.848 0-28.672 6.144-38.4 15.872l-343.552 309.76L168.96 134.656c-9.728-9.728-23.552-15.872-38.4-15.872-30.208 0-54.784 24.576-54.784 54.784 0 14.848 6.144 28.672 15.872 38.4l382.464 350.72z" p-id="9272" fill="#ffffff"></path></svg>