<?xml version="1.0" standalone="no"?><!DOCTYPE svg PUBLIC "-//W3C//DTD SVG 1.1//EN" "http://www.w3.org/Graphics/SVG/1.1/DTD/svg11.dtd"><svg t="1720689486849" class="icon" viewBox="0 0 1025 1024" version="1.1" xmlns="http://www.w3.org/2000/svg" p-id="5756" width="24.0234375" height="24" xmlns:xlink="http://www.w3.org/1999/xlink"><path d="M786.527 741.355c68.17-78.597 109.424-181.17 109.424-293.38C895.951 200.566 695.386 0 447.976 0 200.566 0 0 200.565 0 447.976 0 695.386 200.566 895.95 447.976 895.95c112.167 0 214.707-41.225 293.293-109.35l228.045 228.046c12.37 12.37 32.812 12.552 45.308 0.056 12.584-12.583 12.471-32.781-0.056-45.308l-228.04-228.04z m-338.551 90.6c-212.066 0-383.98-171.914-383.98-383.98 0-212.065 171.914-383.978 383.98-383.978 212.065 0 383.979 171.913 383.979 383.979 0 212.065-171.914 383.979-383.98 383.979z" p-id="5757" fill="#666666"></path></svg>