<svg xmlns="http://www.w3.org/2000/svg" xmlns:xlink="http://www.w3.org/1999/xlink" fill="none" version="1.1" width="16" height="16" viewBox="0 0 16 16"><defs><clipPath id="master_svg0_21_3925"><rect x="0" y="0" width="16" height="16" rx="0"/></clipPath></defs><g clip-path="url(#master_svg0_21_3925)"><g><rect x="0" y="0" width="16" height="16" rx="0" fill="#FFFFFF" fill-opacity="0.009999999776482582"/></g><g><path d="M8.00016609375,14.6666740234375C9.84109609375,14.6666740234375,11.50779609375,13.9204740234375,12.71419609375,12.7140740234375C13.92059609375,11.5076740234375,14.66679609375,9.8409740234375,14.66679609375,8.0000440234375C14.66679609375,6.1591040234375,13.92059609375,4.4924440234375,12.71419609375,3.2859940234375C11.50779609375,2.0795670234375,9.84109609375,1.3333740234375,8.00016609375,1.3333740234375C6.15922609375,1.3333740234375,4.49256609375,2.0795670234375,3.28611609375,3.2859940234375C2.07968909375,4.4924440234375,1.33349609375,6.1591040234375,1.33349609375,8.0000440234375C1.33349609375,9.8409740234375,2.07968909375,11.5076740234375,3.28611609375,12.7140740234375C4.49256609375,13.9204740234375,6.15922609375,14.6666740234375,8.00016609375,14.6666740234375Z" fill="#2CBF77" fill-opacity="1"/><path d="M0.83349609375,8.0000440234375Q0.83349609375,10.9685440234375,2.93256609375,13.0676740234375Q5.03166609375,15.1666740234375,8.00016609375,15.1666740234375Q10.96866609375,15.1666740234375,13.06779609375,13.0676740234375Q15.16679609375,10.9685440234375,15.16679609375,8.0000440234375Q15.16679609375,5.0315440234375,13.06779609375,2.9324440234375Q10.96866609375,0.8333740234375,8.00016609375,0.8333740234375Q5.03166609375,0.8333740234375,2.93256609375,2.9324340234374997Q0.83349609375,5.0315440234375,0.83349609375,8.0000440234375ZM8.00016609375,14.1666740234375Q5.44587609375,14.1666740234375,3.63966609375,12.3604740234375Q1.83349609375,10.5543340234375,1.83349609375,8.0000440234375Q1.83349609375,5.4457540234375,3.63966609375,3.6395540234375Q5.44587609375,1.8333740234375,8.00016609375,1.8333740234375Q10.55445609375,1.8333740234375,12.36059609375,3.6395440234375Q14.16679609375,5.4457540234375,14.16679609375,8.0000440234375Q14.16679609375,10.5543340234375,12.36059609375,12.3604740234375Q10.55444609375,14.1666740234375,8.00016609375,14.1666740234375Z" fill-rule="evenodd" fill="#2CBF77" fill-opacity="1"/></g><g><path d="M11.68686609375,6.353741L11.68704609375,6.353553Q11.75737609375,6.283227,11.79543609375,6.191342Q11.83349609375,6.0994562,11.83349609375,6Q11.83349609375,5.9005438,11.79543609375,5.808658Q11.75737609375,5.716773,11.68704609375,5.646447L11.68676609375,5.646161Q11.68475609375,5.64416,11.68273609375,5.642182L11.68244609375,5.6419Q11.61241609375,5.573663,11.52184609375,5.536832Q11.43126609375,5.5,11.33349609375,5.5Q11.31098609375,5.5,11.28856609375,5.502023Q11.10808609375,5.518306,10.97994609375,5.646447L10.97975609375,5.646634L7.33349609375,9.29289L5.68704909375,7.64645Q5.61672309375,7.5761199999999995,5.52483809375,7.53806Q5.43295229375,7.5,5.33349609375,7.5Q5.23403989375,7.5,5.14215409375,7.53806Q5.05026909375,7.5761199999999995,4.97994309375,7.64645Q4.90961609375,7.71677,4.87155609375,7.80866Q4.83349609375,7.9005399999999995,4.83349609375,8Q4.83349609375,8.09946,4.87155609375,8.19134Q4.90961609375,8.28323,4.97994309375,8.35355L4.98013009375,8.35374L6.97994609375,10.35355Q7.01476609375,10.38837,7.0557060937500005,10.41573Q7.09665609375,10.44309,7.14215609375,10.46194Q7.18765609375,10.48078,7.23594609375,10.49039Q7.28424609375,10.5,7.33349609375,10.5Q7.38274609375,10.5,7.43103609375,10.49039Q7.47933609375,10.48078,7.52483609375,10.46194Q7.57033609375,10.44309,7.61127609375,10.41573Q7.65222609375,10.38837,7.68704609375,10.35355L11.68686609375,6.353741Z" fill-rule="evenodd" fill="#FFFFFF" fill-opacity="1"/></g></g></svg>