<svg xmlns="http://www.w3.org/2000/svg" xmlns:xlink="http://www.w3.org/1999/xlink" version="1.1" width="16" height="16" viewBox="0 0 16 16"><defs><clipPath id="master_svg0_21_4450"><rect x="0" y="0" width="16" height="16" rx="0"/></clipPath></defs><g clip-path="url(#master_svg0_21_4450)"><g><rect x="0" y="0" width="16" height="16" rx="0" fill="#FFFFFF" fill-opacity="0.009999999776482582"/></g><g><rect x="0" y="0" width="16" height="16" rx="0" fill="#FFFFFF" fill-opacity="0.009999999776482582"/></g><g><path d="M1.8966585875,9.715558447265625Q2.4116161875,10.307738447265624,3.1957221875,10.299988447265624L6.2930821875,10.299988447265624L6.2930821875,12.200008447265626Q6.2930821875,13.152708447265624,6.9667421875,13.826308447265625Q7.6404021875,14.500008447265625,8.5930821875,14.500008447265625Q8.6656221875,14.500008447265625,8.7351721875,14.479408447265625Q8.804722187500001,14.458808447265625,8.865542187500001,14.419208447265625Q8.9263621875,14.379708447265624,8.973452187500001,14.324508447265625Q9.020532187499999,14.269308447265624,9.0499921875,14.203008447265624L11.4499921875,8.803058447265624Q11.4930821875,8.706088447265625,11.4930821875,8.599988447265625L11.4930821875,1.999986171765625Q11.4930821875,1.950740447265625,11.4834821875,1.902441047265625Q11.4738721875,1.854141447265625,11.4550221875,1.8086444472656251Q11.4361821875,1.763147447265625,11.4088221875,1.722201447265625Q11.3814621875,1.681254447265625,11.3466421875,1.6464324472656249Q11.3118121875,1.611610447265625,11.2708721875,1.584251447265625Q11.2299221875,1.556892447265625,11.1844221875,1.538046447265625Q11.1389321875,1.519200447265625,11.0906321875,1.509593447265625Q11.0423321875,1.499986447265625,10.9930821875,1.499986447265625L4.021082187499999,1.499986447265625Q3.3909721875,1.492832447265625,2.9065221875000002,1.904614347265625Q2.4220721875,2.316396447265625,2.3267411875,2.945018447265625L1.4988651874999999,8.344208447265625Q1.3807771875000001,9.122238447265625,1.8966585875,9.715558447265625ZM6.7930821875,9.299988447265626L3.1930921875,9.299988447265626L3.1874121875,9.300018447265625Q2.8637211875,9.303698447265624,2.6512931875,9.059418447265625Q2.4388491875,8.815078447265625,2.4873131875,8.495768447265625L3.3154321875,3.094958447265625Q3.3546921875,2.8361114472656253,3.5541721875,2.666553447265625Q3.7536521875,2.496995447265625,4.021082187499999,2.4999864472656252L10.4930821875,2.4999864472656252L10.4930821875,8.493878447265626L8.2834521875,13.465508447265625Q7.9401021875,13.385508447265625,7.6738521875,13.119208447265626Q7.2930821875,12.738408447265625,7.2930821875,12.200008447265626L7.2930821875,9.799988447265626Q7.2930821875,9.750738447265626,7.2834821875,9.702438447265624Q7.2738721875,9.654138447265625,7.2550221875,9.608638447265626Q7.2361821875,9.563148447265625,7.2088221875,9.522198447265625Q7.1814621875,9.481258447265624,7.1466421875,9.446428447265625Q7.1118121875,9.411608447265625,7.0708721875,9.384248447265625Q7.0299221875,9.356888447265625,6.9844321875,9.338048447265624Q6.9389321875,9.319198447265624,6.8906321875,9.309588447265625Q6.8423321875,9.299988447265626,6.7930821875,9.299988447265626Z" fill-rule="evenodd"  fill-opacity="1"/></g><g><path d="M10.4931640625,2.000006357953125L10.4931640625,8.666676376953125Q10.4931640625,8.715916376953125,10.5027710625,8.764216376953126Q10.512379062499999,8.812516376953125,10.5312240625,8.858016376953124Q10.5500700625,8.903506376953125,10.5774290625,8.944456376953125Q10.6047890625,8.985406376953126,10.6396110625,9.020226376953126Q10.6744330625,9.055046376953126,10.7153790625,9.082406376953125Q10.7563250625,9.109766376953125,10.8018220625,9.128616376953126Q10.8473190625,9.147456376953125,10.8956189625,9.157066376953125Q10.9439183625,9.166676376953125,10.9931640625,9.166676376953125L12.5863240625,9.166596376953125Q13.3073340625,9.179346376953125,13.8619540625,8.666286376953124Q14.3928640625,8.175146376953126,14.4886540625,7.467026376953125Q14.4931640625,7.433666376953125,14.4931640625,7.400006376953125L14.4931640625,3.200006376953125Q14.4931640625,3.166346376953125,14.4886540625,3.132986376953125Q14.3924840625,2.422001376953125,13.8480740625,1.954701176953125Q13.3036740625,1.487399376953125,12.5951640625,1.500006376953125L10.9931640625,1.500006376953125Q10.9439183625,1.500006376953125,10.8956189625,1.509613376953125Q10.8473190625,1.519221376953125,10.8018220625,1.5380663769531249Q10.7563250625,1.556912376953125,10.7153790625,1.584271376953125Q10.6744330625,1.611631376953125,10.6396110625,1.6464533769531249Q10.6047890625,1.681275376953125,10.5774290625,1.722221376953125Q10.5500700625,1.763167376953125,10.5312240625,1.808664376953125Q10.512379062499999,1.854161376953125,10.5027710625,1.902461176953125Q10.4931640625,1.950760676953125,10.4931640625,2.000006357953125ZM11.4931640625,8.166696376953125L12.6040040625,8.166756376953124Q12.9232440625,8.172396376953124,13.1828740625,7.932216376953125Q13.4385440625,7.695706376953125,13.4931640625,7.363136376953125L13.4931640625,3.237076376953125Q13.4409440625,2.923104376953125,13.1967540625,2.713496376953125Q12.9410040625,2.493968376953125,12.5951640625,2.500006376953125L11.4931640625,2.500006376953125L11.4931640625,8.166696376953125Z" fill-rule="evenodd" fill-opacity="1"/></g></g></svg>