<svg xmlns="http://www.w3.org/2000/svg" xmlns:xlink="http://www.w3.org/1999/xlink" fill="none" version="1.1" width="16" height="16" viewBox="0 0 16 16"><defs><clipPath id="master_svg0_7_17441"><rect x="0" y="0" width="16" height="16" rx="0"/></clipPath></defs><g clip-path="url(#master_svg0_7_17441)"><g><rect x="0" y="0" width="16" height="16" rx="0" fill="#FFFFFF" fill-opacity="0.009999999776482582"/></g><g><g><path d="M14.5,14L14.5,8Q14.5,7.9507543,14.4904,7.9024549Q14.4808,7.854155,14.4619,7.808658Q14.4431,7.763161,14.4157,7.722215Q14.3884,7.681269,14.3536,7.646447Q14.3187,7.611625,14.2778,7.584265Q14.2368,7.556906,14.1913,7.53806Q14.1458,7.519215,14.0975,7.509607Q14.0492,7.5,14,7.5Q13.9508,7.5,13.9025,7.509607Q13.8542,7.519215,13.8087,7.53806Q13.7632,7.556906,13.7222,7.584265Q13.6813,7.611625,13.6464,7.646447Q13.6116,7.681269,13.5843,7.722215Q13.5569,7.763161,13.5381,7.808658Q13.5192,7.854155,13.5096,7.9024549Q13.5,7.9507543,13.5,8L13.5,13.5L2.5,13.5L2.5,8.00276693Q2.5,7.9535212,2.490393,7.9052218Q2.480785,7.856922,2.4619400000000002,7.811425Q2.443094,7.765928,2.415735,7.724982Q2.388375,7.684036,2.353553,7.649214Q2.318731,7.614392,2.277785,7.587032Q2.236839,7.559673,2.191342,7.540827Q2.145845,7.521982,2.0975451,7.512374Q2.0492457,7.502767,2,7.502767Q1.9507543,7.502767,1.9024549,7.512374Q1.854155,7.521982,1.8086579999999999,7.540827Q1.763161,7.559673,1.722215,7.587032Q1.681269,7.614392,1.646447,7.649214Q1.611625,7.684036,1.584265,7.724982Q1.5569060000000001,7.765928,1.53806,7.811425Q1.519215,7.856922,1.509607,7.9052218Q1.5,7.9535212,1.5,8.00276692L1.5,14Q1.5,14.04925,1.509607,14.09755Q1.519215,14.14584,1.53806,14.19134Q1.5569060000000001,14.23684,1.584265,14.27778Q1.611625,14.31873,1.646447,14.35355Q1.681269,14.38837,1.722215,14.41573Q1.763161,14.44309,1.8086579999999999,14.46194Q1.854155,14.48078,1.9024549,14.49039Q1.9507543,14.5,2,14.5L14,14.5Q14.0492,14.5,14.0975,14.49039Q14.1458,14.48078,14.1913,14.46194Q14.2368,14.44309,14.2778,14.41573Q14.3187,14.38837,14.3536,14.35355Q14.3884,14.31873,14.4157,14.27778Q14.4431,14.23684,14.4619,14.19134Q14.4808,14.14584,14.4904,14.09755Q14.5,14.04925,14.5,14Z" fill-rule="evenodd" fill="#333333" fill-opacity="1"/></g><g><path d="M4.646634,4.64626L4.646447,4.64645Q4.57612,4.71677,4.53806,4.80866Q4.5,4.9005399999999995,4.5,5Q4.5,5.01202,4.500577,5.02402Q4.505055,5.11714,4.542791,5.20238Q4.580526,5.28763,4.646447,5.35355Q4.716773,5.4238800000000005,4.808658,5.46194Q4.9005438,5.5,5,5.5Q5.0994562,5.5,5.191342,5.46194Q5.283227,5.4238800000000005,5.353553,5.35355L5.353741,5.35337L8,2.707107L10.64645,5.35355Q10.71677,5.4238800000000005,10.80866,5.46194Q10.90054,5.5,11,5.5Q11.09946,5.5,11.19134,5.46194Q11.28323,5.4238800000000005,11.35355,5.35355Q11.42388,5.28323,11.46194,5.19134Q11.5,5.0994600000000005,11.5,5Q11.5,4.9005399999999995,11.46194,4.80866Q11.42388,4.71677,11.35355,4.64645L8.35355,1.646447Q8.28323,1.57612,8.19134,1.53806Q8.09946,1.5,8,1.5Q7.9005399999999995,1.5,7.80866,1.53806Q7.71677,1.57612,7.64645,1.646447L4.646634,4.64626Z" fill-rule="evenodd" fill="#333333" fill-opacity="1"/></g><g><path d="M8.4970703125,10.66667L8.4970703125,2Q8.4970703125,1.9507543,8.4874633125,1.9024549Q8.477855312500001,1.854155,8.4590103125,1.8086579999999999Q8.4401643125,1.763161,8.4128053125,1.722215Q8.3854453125,1.681269,8.3506233125,1.646447Q8.3158013125,1.611625,8.2748553125,1.584265Q8.2339093125,1.5569060000000001,8.1884123125,1.53806Q8.1429153125,1.519215,8.0946154125,1.509607Q8.0463160125,1.5,7.9970703125,1.5Q7.9478246125,1.5,7.8995252125,1.509607Q7.8512253125,1.519215,7.8057283125,1.53806Q7.7602313125,1.5569060000000001,7.7192853125,1.584265Q7.6783393125,1.611625,7.6435173125,1.646447Q7.6086953125,1.681269,7.5813353125,1.722215Q7.5539763125,1.763161,7.5351303125,1.8086579999999999Q7.5162853125,1.854155,7.5066773125,1.9024549Q7.4970703125,1.9507543,7.4970703125,2L7.4970703125,10.66667Q7.4970703125,10.71591,7.5066773125,10.76421Q7.5162853125,10.81251,7.5351303125,10.85801Q7.5539763125,10.9035,7.5813353125,10.94445Q7.6086953125,10.9854,7.6435173125,11.02022Q7.6783393125,11.05504,7.7192853125,11.0824Q7.7602313125,11.10976,7.8057283125,11.1286Q7.8512253125,11.14745,7.8995252125,11.15706Q7.9478246125,11.16667,7.9970703125,11.16667Q8.0463160125,11.16667,8.0946154125,11.15706Q8.1429153125,11.14745,8.1884123125,11.12861Q8.2339093125,11.10976,8.2748553125,11.0824Q8.3158013125,11.05504,8.3506233125,11.02022Q8.3854453125,10.9854,8.4128053125,10.94445Q8.4401643125,10.90351,8.4590103125,10.85801Q8.477855312500001,10.81251,8.4874633125,10.76421Q8.4970703125,10.71591,8.4970703125,10.66667Z" fill-rule="evenodd" fill="#333333" fill-opacity="1"/></g></g></g></svg>