<svg xmlns="http://www.w3.org/2000/svg" xmlns:xlink="http://www.w3.org/1999/xlink" fill="none" version="1.1" width="16" height="16" viewBox="0 0 16 16"><defs><clipPath id="master_svg0_21_3961"><rect x="0" y="0" width="16" height="16" rx="0"/></clipPath></defs><g clip-path="url(#master_svg0_21_3961)"><g><rect x="0" y="0" width="16" height="16" rx="0" fill="#FFFFFF" fill-opacity="0.009999999776482582"/></g><g><path d="M14.66679609375,7.999921953125Q14.66679609375,8.163571953125,14.65879609375,8.327031953125001Q14.65079609375,8.490501953125001,14.63469609375,8.653361953125Q14.61869609375,8.816231953125001,14.59469609375,8.978121953125001Q14.57069609375,9.140011953125,14.53869609375,9.300521953125Q14.50679609375,9.461031953125,14.46699609375,9.619781953125Q14.42729609375,9.778541953125,14.37979609375,9.935151953125Q14.33229609375,10.091761953125,14.27709609375,10.245851953125Q14.22199609375,10.399941953125,14.15939609375,10.551141953125Q14.09669609375,10.702341953125,14.02679609375,10.850281953125Q13.95679609375,10.998231953125,13.87959609375,11.142561953125Q13.80249609375,11.286891953125,13.71839609375,11.427251953125Q13.63419609375,11.567651953125,13.54329609375,11.703751953125Q13.45239609375,11.839751953125,13.35489609375,11.971251953125Q13.25739609375,12.102651953125,13.15359609375,12.229251953125Q13.04969609375,12.355751953125,12.93979609375,12.476951953125Q12.82989609375,12.598251953125,12.71419609375,12.713951953125Q12.59849609375,12.829651953125,12.47719609375,12.939551953125Q12.35599609375,13.049451953125,12.22949609375,13.153351953125Q12.10289609375,13.257151953125,11.97149609375,13.354651953125Q11.83999609375,13.452151953125,11.70399609375,13.543051953125Q11.56789609375,13.633951953125,11.42749609375,13.718151953125Q11.28713609375,13.802251953125,11.14280609375,13.879351953125Q10.99847609375,13.956551953125,10.85052609375,14.026551953125Q10.70258609375,14.096451953125,10.55138609375,14.159151953125Q10.40018609375,14.221751953125,10.24609609375,14.276851953125Q10.09200609375,14.332051953125,9.93539609375,14.379551953125Q9.77878609375,14.427051953125,9.62002609375,14.466751953125Q9.46127609375,14.506551953125,9.30076609375,14.538451953125Q9.14025609375,14.570451953125,8.978366093750001,14.594451953125Q8.816476093750001,14.618451953125,8.65361609375,14.634451953125Q8.490746093750001,14.650551953125,8.32728609375,14.658551953125Q8.16381609375,14.666551953125,8.00016609375,14.666551953125Q7.83650609375,14.666551953125,7.67304609375,14.658551953125Q7.50958609375,14.650551953125,7.34671609375,14.634451953125Q7.18384609375,14.618451953125,7.02195609375,14.594451953125Q6.86007609375,14.570451953125,6.69955609375,14.538451953125Q6.53904609375,14.506551953125,6.38029609375,14.466751953125Q6.22154609375,14.427051953125,6.06493609375,14.379551953125Q5.90832609375,14.332051953125,5.75422609375,14.276851953125Q5.60013609375,14.221751953125,5.44893609375,14.159151953125Q5.29773609375,14.096451953125,5.14979609375,14.026551953125Q5.00184609375,13.956551953125,4.85751609375,13.879351953125Q4.71318609375,13.802251953125,4.57280609375,13.718151953125Q4.43243609375,13.633951953125,4.29635609375,13.543051953125Q4.16028609375,13.452151953125,4.02883609375,13.354651953125Q3.89738609375,13.257151953125,3.77087609375,13.153351953125Q3.64436609375,13.049451953125,3.52310609375,12.939551953125Q3.40183609375,12.829651953125,3.28611609375,12.713951953125Q3.17039609375,12.598251953125,3.06048609375,12.476951953125Q2.95058609375,12.355751953125,2.84675609375,12.229251953125Q2.74293609375,12.102651953125,2.64544609375,11.971251953125Q2.54795609375,11.839751953125,2.45703609375,11.703751953125Q2.36610609375,11.567651953125,2.28197209375,11.427251953125Q2.19783509375,11.286891953125,2.12068809375,11.142561953125Q2.04354009375,10.998231953125,1.9735670937499998,10.850281953125Q1.90359509375,10.702341953125,1.84096609375,10.551141953125Q1.77833709375,10.399941953125,1.7232020937499999,10.245851953125Q1.66806809375,10.091761953125,1.62056009375,9.935151953125Q1.57305309375,9.778541953125,1.53328809375,9.619781953125Q1.49352209375,9.461031953125,1.46159409375,9.300521953125Q1.42966619375,9.140011953125,1.40565269375,8.978121953125001Q1.38163919375,8.816231953125001,1.36559789375,8.653371953125Q1.34955669375,8.490501953125001,1.34152638375,8.327041953125Q1.33349609375,8.163571953125,1.33349609375,7.999921953125Q1.33349609375,7.836261953125,1.34152638375,7.672801953125Q1.34955669375,7.509341953125,1.36559789375,7.346471953125Q1.38163919375,7.183601953125,1.40565269375,7.021711953125Q1.42966619375,6.859831953125,1.46159409375,6.699311953125Q1.49352209375,6.538801953125,1.53328809375,6.380051953125Q1.57305309375,6.221301953125,1.62056009375,6.064691953125Q1.66806809375,5.908081953125,1.7232020937499999,5.753981953125Q1.77833709375,5.599891953125,1.84096609375,5.448691953125Q1.90359509375,5.297491953125,1.9735670937499998,5.149551953125Q2.04354009375,5.001601953125,2.12068809375,4.857271953125Q2.19783509375,4.712941953125,2.28197209375,4.572561953125Q2.36610609375,4.432191953125,2.45703609375,4.296111953125Q2.54795609375,4.160041953125,2.64544609375,4.028591953125Q2.74293609375,3.897141953125,2.84675609375,3.770631953125Q2.95058609375,3.644121953125,3.06048609375,3.522861953125Q3.17039609375,3.401591953125,3.28611609375,3.285871953125Q3.40183609375,3.170151953125,3.52310609375,3.060241953125Q3.64436609375,2.950341953125,3.77087609375,2.846511953125Q3.89738609375,2.742691953125,4.02883609375,2.645201953125Q4.16028609375,2.547711953125,4.29635609375,2.456791953125Q4.43243609375,2.365861953125,4.57280609375,2.281727953125Q4.71318609375,2.197590953125,4.85751609375,2.120443953125Q5.00184609375,2.043295953125,5.14979609375,1.9733229531249998Q5.29773609375,1.903350953125,5.44893609375,1.840721953125Q5.60013609375,1.778092953125,5.75422609375,1.7229579531249999Q5.90832609375,1.667823953125,6.06493609375,1.620315953125Q6.22154609375,1.572808953125,6.38029609375,1.533043953125Q6.53904609375,1.493277953125,6.69955609375,1.461349953125Q6.86007609375,1.429422053125,7.02195609375,1.405408553125Q7.18384609375,1.381395053125,7.34671609375,1.365353753125Q7.50958609375,1.349312553125,7.67304609375,1.341282243125Q7.83650609375,1.333251953125,8.00016609375,1.333251953125Q8.16381609375,1.333251953125,8.327276093750001,1.341282243125Q8.490746093750001,1.349312553125,8.65360609375,1.365353753125Q8.816476093750001,1.381395053125,8.978366093750001,1.405408553125Q9.14025609375,1.429422053125,9.30076609375,1.461349953125Q9.46127609375,1.493277953125,9.62002609375,1.533043953125Q9.77878609375,1.572808953125,9.93539609375,1.620315953125Q10.09200609375,1.667823953125,10.24609609375,1.7229579531249999Q10.40018609375,1.778092953125,10.55138609375,1.840721953125Q10.70258609375,1.903350953125,10.85052609375,1.9733229531249998Q10.99847609375,2.043295953125,11.14280609375,2.120443953125Q11.28713609375,2.197590953125,11.42749609375,2.281727953125Q11.56789609375,2.365861953125,11.70399609375,2.456791953125Q11.83999609375,2.547711953125,11.97149609375,2.645201953125Q12.10289609375,2.742691953125,12.22949609375,2.846511953125Q12.35599609375,2.950341953125,12.47719609375,3.060241953125Q12.59849609375,3.170151953125,12.71419609375,3.285871953125Q12.82989609375,3.401591953125,12.93979609375,3.522861953125Q13.04969609375,3.644121953125,13.15359609375,3.770631953125Q13.25739609375,3.897141953125,13.35489609375,4.028591953125Q13.45239609375,4.160041953125,13.54329609375,4.296111953125Q13.63419609375,4.432191953125,13.71839609375,4.572561953125Q13.80249609375,4.712941953125,13.87959609375,4.857271953125Q13.95679609375,5.001601953125,14.02679609375,5.149551953125Q14.09669609375,5.297491953125,14.15939609375,5.448691953125Q14.22199609375,5.599891953125,14.27709609375,5.753981953125Q14.33229609375,5.908081953125,14.37979609375,6.064691953125Q14.42729609375,6.221301953125,14.46699609375,6.380051953125Q14.50679609375,6.538801953125,14.53869609375,6.699311953125Q14.57069609375,6.859831953125,14.59469609375,7.021711953125Q14.61869609375,7.183601953125,14.63469609375,7.346471953125Q14.65079609375,7.509341953125,14.65879609375,7.672801953125Q14.66679609375,7.836261953125,14.66679609375,7.999921953125Z" fill="#999999" fill-opacity="1"/><path d="M2.93256609375,2.932321953125Q0.83349609375,5.031381953125,0.83349609375,7.999921953125Q0.83349609375,10.968451953125,2.93256609375,13.067551953125Q5.03162609375,15.166551953125,8.00016609375,15.166551953125Q10.96869609375,15.166551953125,13.06779609375,13.067551953125Q15.16679609375,10.968451953125,15.16679609375,7.999921953125Q15.16679609375,5.031381953125,13.06779609375,2.932321953125Q10.96869609375,0.833251953125,8.00016609375,0.833251953125Q5.03163609375,0.833251953125,2.93256609375,2.932321953125ZM3.63966609375,12.360451953125Q1.83349609375,10.554231953125,1.83349609375,7.999921953125Q1.83349509375,5.445601953125,3.63966609375,3.639421953125Q5.44584609375,1.833251953125,8.00016609375,1.833251953125Q10.55447609375,1.833251953125,12.36069609375,3.639421953125Q14.16679609375,5.445601953125,14.16679609375,7.999921953125Q14.16679609375,10.554241953125,12.36069609375,12.360451953125Q10.55447609375,14.166551953125,8.00016609375,14.166551953125Q5.44584609375,14.166551953125,3.63966609375,12.360451953125Z" fill-rule="evenodd" fill="#999999" fill-opacity="1"/></g><g><path d="M10.47510140625,11.1827L10.47535140625,11.18295Q10.54568140625,11.25328,10.63757140625,11.29134Q10.72945140625,11.3294,10.82891140625,11.3294Q10.92836140625,11.3294,11.02025140625,11.29134Q11.11213140625,11.25328,11.182461406249999,11.18295Q11.252791406250001,11.11263,11.290851406249999,11.02074Q11.32891140625,10.92886,11.32891140625,10.8294Q11.32891140625,10.72994,11.290851406249999,10.63806Q11.252791406250001,10.54617,11.182461406249999,10.475850000000001L8.50246240625,7.79585L8.50284240625,4.0000500312L8.50284240625,4Q8.50284240625,3.9541515,8.49450340625,3.9090677Q8.48659640625,3.866314,8.47142840625,3.825568Q8.45626040625,3.784821,8.43428740625,3.747304Q8.41231340625,3.709787,8.38419440625,3.676626Q8.35607440625,3.643465,8.32265340625,3.615655Q8.28923140625,3.587846,8.25151240625,3.566222Q8.21379240625,3.544599,8.17290640625,3.529811Q8.13202040625,3.515022,8.08919520625,3.507513Q8.04637030625,3.500004,8.00289198025,3.5Q7.95699350625,3.5,7.91190960625,3.508338Q7.86915640625,3.516245,7.82840940625,3.531413Q7.78766340625,3.5465809999999998,7.75014640625,3.568555Q7.71262940625,3.590529,7.67946840625,3.618648Q7.64630740625,3.646767,7.61849740625,3.680189Q7.59068740625,3.71361,7.56906440625,3.75133Q7.54744040625,3.78905,7.5326524062499995,3.829936Q7.51786440625,3.870822,7.5103554062499995,3.9136468Q7.50284640625,3.9564717,7.50284240625,3.9999499688L7.50284240625,3.9999999999994995L7.50244140625,8.002880000000001Q7.50243140625,8.102350000000001,7.54049240625,8.19425Q7.57855240625,8.28615,7.64888840625,8.35649L10.47510140625,11.1827Z" fill-rule="evenodd" fill="#FFFFFF" fill-opacity="1"/></g></g></svg>